<svg xmlns="http://www.w3.org/2000/svg" version="1.1" viewBox="153 144 202 211" style="max-height: 500px" width="202" height="211">
<path transform="translate(326.0625,170.43359375)" fill="#8695A7" d="M0 0 C4.15654098 0.00838012 5.52668222 0.2255149 8.875 3.00390625 C9.555625 3.84953125 10.23625 4.69515625 10.9375 5.56640625 C11.2675 5.89640625 11.5975 6.22640625 11.9375 6.56640625 C12.23072866 9.49869288 12.43754247 11.71132508 11.9375 14.56640625 C9.5 17.50390625 9.5 17.50390625 6.9375 19.56640625 C6.6075 19.89640625 6.2775 20.22640625 5.9375 20.56640625 C1.50886174 21.11437163 -1.95052858 21.38004387 -5.625 18.69140625 C-7.0625 16.56640625 -7.0625 16.56640625 -7.0625 14.56640625 C-8.8878125 14.84484375 -8.8878125 14.84484375 -10.75 15.12890625 C-16.90134987 15.83640975 -22.92536321 15.18296559 -29.0625 14.56640625 C-29.0625 15.22640625 -29.0625 15.88640625 -29.0625 16.56640625 C-29.7225 16.56640625 -30.3825 16.56640625 -31.0625 16.56640625 C-31.0625 17.22640625 -31.0625 17.88640625 -31.0625 18.56640625 C-30.464375 18.66953125 -29.86625 18.77265625 -29.25 18.87890625 C-26.78006736 19.6551708 -25.73998765 20.63729546 -24.0625 22.56640625 C-24.0625 21.57640625 -24.0625 20.58640625 -24.0625 19.56640625 C-20.81423326 17.40089509 -19.83155843 17.01483672 -16.0625 17.56640625 C-13.6875 19.19140625 -13.6875 19.19140625 -12.0625 21.56640625 C-12.3125 24.81640625 -12.3125 24.81640625 -13.0625 27.56640625 C-12.15757812 27.60507813 -12.15757812 27.60507813 -11.234375 27.64453125 C-7.50166909 27.90943296 -4.77398407 28.12172871 -1.5625 30.12890625 C0.53154613 33.53173121 1.14389604 36.58137507 0.9375 40.56640625 C-0.61126022 44.23452256 -2.52465157 46.69920847 -6.0625 48.56640625 C-10.3310337 49.10967418 -12.34326837 49.02549027 -16 46.69140625 C-18.0625 44.56640625 -18.0625 44.56640625 -18.0625 42.56640625 C-41.65990431 40.49196211 -41.65990431 40.49196211 -63.39135742 47.48364258 C-70.67015714 54.20880559 -71.78526172 61.76867227 -72.19322205 71.25161743 C-72.33068841 77.08827643 -72.22776765 82.91256624 -71.91796875 88.7421875 C-71.88242889 89.48537735 -71.84688904 90.2285672 -71.81027222 90.99427795 C-71.53653068 95.03581885 -71.53653068 95.03581885 -69.5090332 98.43041992 C-69.03167725 98.80529541 -68.55432129 99.1801709 -68.0625 99.56640625 C-68.0625 100.22640625 -68.0625 100.88640625 -68.0625 101.56640625 C-67.4025 101.56640625 -66.7425 101.56640625 -66.0625 101.56640625 C-66.0625 102.22640625 -66.0625 102.88640625 -66.0625 103.56640625 C-65.4025 103.56640625 -64.7425 103.56640625 -64.0625 103.56640625 C-61.4375 105.94140625 -61.4375 105.94140625 -59.0625 108.56640625 C-59.0625 109.22640625 -59.0625 109.88640625 -59.0625 110.56640625 C-58.4025 110.56640625 -57.7425 110.56640625 -57.0625 110.56640625 C-57.0625 111.22640625 -57.0625 111.88640625 -57.0625 112.56640625 C-56.4025 112.56640625 -55.7425 112.56640625 -55.0625 112.56640625 C-55.0625 113.22640625 -55.0625 113.88640625 -55.0625 114.56640625 C-42.8525 114.23640625 -30.6425 113.90640625 -18.0625 113.56640625 C-17.7325 109.60640625 -17.4025 105.64640625 -17.0625 101.56640625 C-18.50882812 101.57800781 -19.95515625 101.58960938 -21.4453125 101.6015625 C-23.3593737 101.61094515 -25.27343631 101.62004484 -27.1875 101.62890625 C-28.61449219 101.64147461 -28.61449219 101.64147461 -30.0703125 101.65429688 C-34.85268487 101.67090233 -39.36021569 101.5717768 -44.0625 100.56640625 C-44.0625 97.59640625 -44.0625 94.62640625 -44.0625 91.56640625 C-39.27551863 91.39871551 -34.48837122 91.23816405 -29.70092773 91.08422852 C-28.07228145 91.03085421 -26.4436979 90.97552843 -24.81518555 90.91821289 C-22.47458422 90.83617414 -20.13384712 90.76115264 -17.79296875 90.6875 C-17.06474411 90.66046494 -16.33651947 90.63342987 -15.58622742 90.60557556 C-12.43204376 90.51242446 -10.08450236 90.55907213 -7.0625 91.56640625 C-6.97557926 95.83711183 -6.92213485 100.10759083 -6.875 104.37890625 C-6.84986328 105.59384766 -6.82472656 106.80878906 -6.79882812 108.06054688 C-6.78916016 109.22392578 -6.77949219 110.38730469 -6.76953125 111.5859375 C-6.7538208 112.65948486 -6.73811035 113.73303223 -6.72192383 114.83911133 C-7.0625 117.56640625 -7.0625 117.56640625 -8.45581055 119.44018555 C-10.0625 120.56640625 -10.0625 120.56640625 -12.0625 120.56640625 C-12.0625 121.22640625 -12.0625 121.88640625 -12.0625 122.56640625 C-12.7225 122.56640625 -13.3825 122.56640625 -14.0625 122.56640625 C-14.0625 123.22640625 -14.0625 123.88640625 -14.0625 124.56640625 C-28.4175 125.06140625 -28.4175 125.06140625 -43.0625 125.56640625 C-41.18021631 127.88293117 -41.18021631 127.88293117 -38.08154297 127.79345703 C-36.21199951 127.77774658 -36.21199951 127.77774658 -34.3046875 127.76171875 C-33.64163605 127.75888885 -32.97858459 127.75605896 -32.29544067 127.75314331 C-30.17594417 127.7419406 -28.05686896 127.71683676 -25.9375 127.69140625 C-24.50130818 127.68137653 -23.06510975 127.67225066 -21.62890625 127.6640625 C-18.10663372 127.64200125 -14.58460797 127.60747119 -11.0625 127.56640625 C-11.0625 126.90640625 -11.0625 126.24640625 -11.0625 125.56640625 C-9.07989574 123.87908348 -7.0792658 122.21274568 -5.0625 120.56640625 C-4.7325 119.90640625 -4.4025 119.24640625 -4.0625 118.56640625 C-3.4025 118.56640625 -2.7425 118.56640625 -2.0625 118.56640625 C-2.0625 108.00640625 -2.0625 97.44640625 -2.0625 86.56640625 C-6.5175 87.06140625 -6.5175 87.06140625 -11.0625 87.56640625 C-12.5475 87.07140625 -12.5475 87.07140625 -14.0625 86.56640625 C-14.16015625 80.4140625 -14.16015625 80.4140625 -14.0625 78.56640625 C-12.50643249 77.01033874 -11.00292629 77.43669856 -8.84375 77.43359375 C-7.56951172 77.43166016 -7.56951172 77.43166016 -6.26953125 77.4296875 C-5.37621094 77.43355469 -4.48289062 77.43742187 -3.5625 77.44140625 C-2.66917969 77.43753906 -1.77585937 77.43367188 -0.85546875 77.4296875 C-0.00597656 77.43097656 0.84351563 77.43226563 1.71875 77.43359375 C2.50314453 77.43472168 3.28753906 77.43584961 4.09570312 77.43701172 C5.9375 77.56640625 5.9375 77.56640625 6.9375 78.56640625 C7.03869282 81.64553184 7.07718327 84.70176124 7.0703125 87.78125 C7.07126923 88.70732559 7.07222595 89.63340118 7.07321167 90.58753967 C7.07389362 92.55046659 7.07203832 94.51339575 7.06787109 96.47631836 C7.06252907 99.48751888 7.06781247 102.49856982 7.07421875 105.50976562 C7.07355785 107.41276075 7.07227645 109.31575578 7.0703125 111.21875 C7.07233673 112.12398911 7.07436096 113.02922821 7.07644653 113.9618988 C7.07171829 115.21813805 7.07171829 115.21813805 7.06689453 116.49975586 C7.06609894 117.23842392 7.06530334 117.97709198 7.06448364 118.73814392 C6.9375 120.56640625 6.9375 120.56640625 5.9375 122.56640625 C5.2775 122.56640625 4.6175 122.56640625 3.9375 122.56640625 C3.70417969 123.11941406 3.47085938 123.67242187 3.23046875 124.2421875 C1.59481489 127.1824112 -0.41483001 129.33291072 -2.75 131.75390625 C-3.57886719 132.63433594 -4.40773438 133.51476562 -5.26171875 134.421875 C-8.68851155 137.04573727 -10.78654739 137.29289116 -15.0625 137.56640625 C-16.37089844 137.67082031 -17.67929687 137.77523437 -19.02734375 137.8828125 C-20.33832031 137.96402344 -21.64929688 138.04523438 -23 138.12890625 C-23.68384766 138.17208984 -24.36769531 138.21527344 -25.07226562 138.25976562 C-26.73552365 138.3644462 -28.39899163 138.46578219 -30.0625 138.56640625 C-28.4533134 140.48938584 -27.53441668 141.46836341 -25.04125977 141.98632812 C-22.56798625 142.03912508 -20.09891687 142.07379659 -17.625 142.06640625 C-16.76583984 142.09476563 -15.90667969 142.123125 -15.02148438 142.15234375 C-12.59256347 142.15988113 -10.43366157 142.09821345 -8.0625 141.56640625 C-5.56203368 139.19058394 -5.56203368 139.19058394 -4.0625 136.56640625 C-3.4025 136.56640625 -2.7425 136.56640625 -2.0625 136.56640625 C-2.0625 135.90640625 -2.0625 135.24640625 -2.0625 134.56640625 C-1.4025 134.56640625 -0.7425 134.56640625 -0.0625 134.56640625 C-0.0625 133.90640625 -0.0625 133.24640625 -0.0625 132.56640625 C0.5975 132.56640625 1.2575 132.56640625 1.9375 132.56640625 C1.9375 131.90640625 1.9375 131.24640625 1.9375 130.56640625 C3.43359375 129.12890625 3.43359375 129.12890625 5.375 127.56640625 C8.08938238 125.42115581 8.08938238 125.42115581 9.9375 122.56640625 C10.05590113 120.99433982 10.11453033 119.41757356 10.14282227 117.84130859 C10.16276749 116.86044281 10.18271271 115.87957703 10.20326233 114.86898804 C10.21997482 113.80749542 10.23668732 112.74600281 10.25390625 111.65234375 C10.2850779 110.02517929 10.2850779 110.02517929 10.31687927 108.36514282 C10.38240634 104.89063004 10.44127447 101.41604001 10.5 97.94140625 C10.54318221 95.58983567 10.5867964 93.23827299 10.63085938 90.88671875 C10.73809093 85.11336355 10.83985144 79.33993105 10.9375 73.56640625 C5.01070464 73.65988523 -0.91567951 73.76596683 -6.84204102 73.88378906 C-8.85857952 73.92209729 -10.87518678 73.9569469 -12.8918457 73.98828125 C-15.78882442 74.03389174 -18.68532896 74.09189264 -21.58203125 74.15234375 C-22.93685356 74.16967056 -22.93685356 74.16967056 -24.31904602 74.18734741 C-25.15969101 74.2072171 -26.000336 74.22708679 -26.86645508 74.24755859 C-27.60591873 74.26088226 -28.34538239 74.27420593 -29.10725403 74.28793335 C-31.38354165 74.46855037 -31.38354165 74.46855037 -34.0625 76.56640625 C-38.46434998 77.13701643 -40.36087208 77.07396687 -44 74.44140625 C-46.0625 71.56640625 -46.0625 71.56640625 -46.625 68.56640625 C-45.89700185 64.68374944 -45.12268871 63.10412372 -42.0625 60.56640625 C-39.01707539 60.15231237 -36.11540263 60.27285792 -33.0625 60.56640625 C-33.0625 61.22640625 -33.0625 61.88640625 -33.0625 62.56640625 C-32.40073257 62.57671371 -31.73896515 62.58702118 -31.05714417 62.59764099 C-24.19578687 62.70546574 -17.33456734 62.82008234 -10.47338867 62.9387207 C-7.90961579 62.98214691 -5.34581254 63.0238161 -2.78198242 63.0637207 C0.89413628 63.12123772 4.57010099 63.18498488 8.24609375 63.25 C9.40024277 63.26671249 10.55439178 63.28342499 11.74351501 63.30064392 C13.3350515 63.33056175 13.3350515 63.33056175 14.95874023 63.36108398 C15.89805893 63.37662827 16.83737762 63.39217255 17.80516052 63.40818787 C19.9375 63.56640625 19.9375 63.56640625 20.9375 64.56640625 C21.07348414 66.48652525 21.13939564 68.41164013 21.17797852 70.33618164 C21.20372452 71.57159195 21.22947052 72.80700226 21.2559967 74.07984924 C21.34549739 79.75930166 21.40612898 85.43894363 21.45239258 91.11889648 C21.47907047 94.11379405 21.52769166 97.10708527 21.59594727 100.10131836 C21.67824309 103.72071119 21.72062947 107.33858275 21.73545647 110.9588604 C21.74765316 112.33403079 21.77356913 113.70915512 21.81390572 115.08378792 C22.1126234 125.80733179 22.1126234 125.80733179 19.20431519 130.16085815 C17.21348049 132.18044445 15.22227489 133.89255045 12.9375 135.56640625 C11.968125 136.35015625 10.99875 137.13390625 10 137.94140625 C9.319375 138.47765625 8.63875 139.01390625 7.9375 139.56640625 C7.6075 140.22640625 7.2775 140.88640625 6.9375 141.56640625 C6.2775 141.56640625 5.6175 141.56640625 4.9375 141.56640625 C4.2775 142.88640625 3.6175 144.20640625 2.9375 145.56640625 C2.2775 145.56640625 1.6175 145.56640625 0.9375 145.56640625 C0.9375 146.22640625 0.9375 146.88640625 0.9375 147.56640625 C-2.76300347 151.24325196 -5.30050004 152.0780271 -10.45703125 152.17578125 C-12.26010742 152.22412109 -12.26010742 152.22412109 -14.09960938 152.2734375 C-15.34548828 152.28761719 -16.59136719 152.30179688 -17.875 152.31640625 C-19.14021484 152.34605469 -20.40542969 152.37570312 -21.70898438 152.40625 C-24.82688676 152.47684402 -27.94404575 152.52959535 -31.0625 152.56640625 C-30.41925781 153.15421875 -29.77601563 153.74203125 -29.11328125 154.34765625 C-26.35237332 157.33469569 -26.27685826 159.56505206 -26.0625 163.56640625 C-26.5 166.00390625 -26.5 166.00390625 -27.0625 167.56640625 C-27.7225 167.56640625 -28.3825 167.56640625 -29.0625 167.56640625 C-29.0625 168.22640625 -29.0625 168.88640625 -29.0625 169.56640625 C-33.08298854 172.24673195 -36.33823564 172.37036001 -41.0625 171.56640625 C-44.51518383 169.12075521 -45.7769502 167.56583054 -46.9375 163.50390625 C-47.0625 160.56640625 -47.0625 160.56640625 -46.37133789 158.60791016 C-45.80993889 156.4857255 -45.80993889 156.4857255 -47.32592773 154.76708984 C-47.95958252 154.17234863 -48.5932373 153.57760742 -49.24609375 152.96484375 C-49.92607422 152.31 -50.60605469 151.65515625 -51.30664062 150.98046875 C-52.03044922 150.30757812 -52.75425781 149.6346875 -53.5 148.94140625 C-54.91950652 147.59941978 -56.33509446 146.25327212 -57.74609375 144.90234375 C-58.38087646 144.3098584 -59.01565918 143.71737305 -59.66967773 143.10693359 C-61.0625 141.56640625 -61.0625 141.56640625 -61.0625 139.56640625 C-61.7225 139.56640625 -62.3825 139.56640625 -63.0625 139.56640625 C-63.0625 138.90640625 -63.0625 138.24640625 -63.0625 137.56640625 C-63.7225 137.56640625 -64.3825 137.56640625 -65.0625 137.56640625 C-66.43969727 136.16357422 -66.43969727 136.16357422 -68.06640625 134.18359375 C-73.22022599 128.1198048 -78.95871231 122.65873485 -84.65039062 117.10546875 C-85.47603516 116.29078125 -86.30167969 115.47609375 -87.15234375 114.63671875 C-87.90378662 113.90211426 -88.65522949 113.16750977 -89.42944336 112.41064453 C-91.0625 110.56640625 -91.0625 110.56640625 -91.0625 108.56640625 C-91.7225 108.56640625 -92.3825 108.56640625 -93.0625 108.56640625 C-93.0625 107.90640625 -93.0625 107.24640625 -93.0625 106.56640625 C-93.7225 106.56640625 -94.3825 106.56640625 -95.0625 106.56640625 C-95.0625 105.90640625 -95.0625 105.24640625 -95.0625 104.56640625 C-95.7225 104.56640625 -96.3825 104.56640625 -97.0625 104.56640625 C-97.0625 103.90640625 -97.0625 103.24640625 -97.0625 102.56640625 C-97.7225 102.56640625 -98.3825 102.56640625 -99.0625 102.56640625 C-99.0625 101.90640625 -99.0625 101.24640625 -99.0625 100.56640625 C-99.7225 100.56640625 -100.3825 100.56640625 -101.0625 100.56640625 C-102.76930947 98.94087342 -104.43910195 97.2752463 -106.0625 95.56640625 C-106.0625 96.88640625 -106.0625 98.20640625 -106.0625 99.56640625 C-106.0625 100.22640625 -106.0625 100.88640625 -106.0625 101.56640625 C-105.4025 101.56640625 -104.7425 101.56640625 -104.0625 101.56640625 C-104.0625 102.22640625 -104.0625 102.88640625 -104.0625 103.56640625 C-103.4025 103.56640625 -102.7425 103.56640625 -102.0625 103.56640625 C-102.0625 104.22640625 -102.0625 104.88640625 -102.0625 105.56640625 C-101.4025 105.56640625 -100.7425 105.56640625 -100.0625 105.56640625 C-100.0625 106.22640625 -100.0625 106.88640625 -100.0625 107.56640625 C-99.4025 107.56640625 -98.7425 107.56640625 -98.0625 107.56640625 C-98.0625 108.22640625 -98.0625 108.88640625 -98.0625 109.56640625 C-97.46518066 109.83324219 -96.86786133 110.10007812 -96.25244141 110.375 C-94.01476032 111.59237834 -92.72166829 112.75024885 -91.0234375 114.62890625 C-90.45149658 115.2523291 -89.87955566 115.87575195 -89.2902832 116.51806641 C-88.37315552 117.53199463 -88.37315552 117.53199463 -87.4375 118.56640625 C-80.84841393 125.74414266 -74.03792347 132.65503804 -67.05419922 139.44921875 C-63.17656976 143.26549058 -59.85806266 146.88992412 -57.0625 151.56640625 C-60.92843032 153.49937141 -64.89321898 153.51262606 -69.0625 152.56640625 C-72.59130722 149.99623242 -75.45016221 147.06214329 -78.0625 143.56640625 C-78.0625 142.90640625 -78.0625 142.24640625 -78.0625 141.56640625 C-78.7225 141.56640625 -79.3825 141.56640625 -80.0625 141.56640625 C-80.0625 140.90640625 -80.0625 140.24640625 -80.0625 139.56640625 C-80.7225 139.56640625 -81.3825 139.56640625 -82.0625 139.56640625 C-82.0625 138.90640625 -82.0625 138.24640625 -82.0625 137.56640625 C-82.619375 137.33953125 -83.17625 137.11265625 -83.75 136.87890625 C-86.72409588 135.19090589 -88.78258865 133.09964108 -91.0625 130.56640625 C-91.0625 129.90640625 -91.0625 129.24640625 -91.0625 128.56640625 C-91.7225 128.56640625 -92.3825 128.56640625 -93.0625 128.56640625 C-93.0625 127.90640625 -93.0625 127.24640625 -93.0625 126.56640625 C-93.7225 126.56640625 -94.3825 126.56640625 -95.0625 126.56640625 C-95.0625 125.90640625 -95.0625 125.24640625 -95.0625 124.56640625 C-95.7225 124.56640625 -96.3825 124.56640625 -97.0625 124.56640625 C-97.0625 123.90640625 -97.0625 123.24640625 -97.0625 122.56640625 C-97.7225 122.56640625 -98.3825 122.56640625 -99.0625 122.56640625 C-99.0625 121.90640625 -99.0625 121.24640625 -99.0625 120.56640625 C-99.7225 120.56640625 -100.3825 120.56640625 -101.0625 120.56640625 C-102.54296875 119.0625 -102.54296875 119.0625 -104.25 117.00390625 C-107.66451725 112.97965378 -111.28095349 109.2445062 -115.0625 105.56640625 C-118.2179099 107.16158285 -118.2179099 107.16158285 -118.46122742 109.51528931 C-118.477882 110.70775772 -118.477882 110.70775772 -118.49487305 111.92431641 C-118.51466721 112.82509918 -118.53446136 113.72588196 -118.55485535 114.65396118 C-118.56444023 116.11495743 -118.56444023 116.11495743 -118.57421875 117.60546875 C-118.59216995 118.60146088 -118.61012115 119.597453 -118.62861633 120.62362671 C-118.68290998 123.81284314 -118.71667617 127.00190834 -118.75 130.19140625 C-118.78315624 132.35028156 -118.81764429 134.50913685 -118.85351562 136.66796875 C-118.93864743 141.96733908 -119.00536757 147.26666307 -119.0625 152.56640625 C-122.3625 152.56640625 -125.6625 152.56640625 -129.0625 152.56640625 C-133.51834037 108.44567682 -133.51834037 108.44567682 -125.13250732 96.74176025 C-119.63040974 90.13412143 -112.94329059 84.85893223 -106.02050781 79.81713867 C-102.8720138 77.42146631 -100.54519388 74.94777915 -98.0637207 71.90014648 C-95.27174714 68.64426319 -92.24649007 65.64502708 -89.2109375 62.6171875 C-88.58459915 61.9918663 -87.9582608 61.3665451 -87.3129425 60.72227478 C-85.35641004 58.77251709 -83.39703549 56.82564537 -81.4375 54.87890625 C-80.11434907 53.56078199 -78.79143059 52.24242435 -77.46875 50.92382812 C-75.04098318 48.50417052 -72.61189252 46.08585995 -70.18115234 43.66918945 C-69.65253601 43.14225494 -69.12391968 42.61532043 -68.57928467 42.07241821 C-67.15228028 40.65554888 -65.71442619 39.2496308 -64.27587891 37.84448242 C-61.93739196 35.57588102 -61.93739196 35.57588102 -60.0625 32.56640625 C-59.4025 32.56640625 -58.7425 32.56640625 -58.0625 32.56640625 C-58.0625 31.90640625 -58.0625 31.24640625 -58.0625 30.56640625 C-57.4025 30.56640625 -56.7425 30.56640625 -56.0625 30.56640625 C-56.0625 29.90640625 -56.0625 29.24640625 -56.0625 28.56640625 C-55.4025 28.56640625 -54.7425 28.56640625 -54.0625 28.56640625 C-54.0625 27.90640625 -54.0625 27.24640625 -54.0625 26.56640625 C-53.4025 26.56640625 -52.7425 26.56640625 -52.0625 26.56640625 C-52.0625 25.90640625 -52.0625 25.24640625 -52.0625 24.56640625 C-50.89603204 23.38506529 -49.72335886 22.20924032 -48.52099609 21.06445312 C-46.98387564 19.48564979 -45.72816078 17.82679678 -44.42578125 16.05078125 C-40.37761102 10.91971703 -36.57373378 6.32770607 -29.95019531 4.89160156 C-24.18487965 4.35517798 -18.52430583 4.46934784 -12.74609375 4.68359375 C-8.10901925 4.81591974 -8.10901925 4.81591974 -4.03515625 2.609375 C-2.0625 0.56640625 -2.0625 0.56640625 0 0 Z M0.9375 7.56640625 C0.2775 8.22640625 -0.3825 8.88640625 -1.0625 9.56640625 C-1.0625 10.55640625 -1.0625 11.54640625 -1.0625 12.56640625 C0.2575 12.89640625 1.5775 13.22640625 2.9375 13.56640625 C4.04586423 11.68324466 4.04586423 11.68324466 4.9375 9.56640625 C4.6075 8.90640625 4.2775 8.24640625 3.9375 7.56640625 C2.9475 7.56640625 1.9575 7.56640625 0.9375 7.56640625 Z M-26.0625 24.56640625 C-26.3925 25.55640625 -26.7225 26.54640625 -27.0625 27.56640625 C-28.11050781 27.5921875 -29.15851563 27.61796875 -30.23828125 27.64453125 C-31.61722902 27.70081483 -32.99613365 27.75816213 -34.375 27.81640625 C-35.41043945 27.83767578 -35.41043945 27.83767578 -36.46679688 27.859375 C-40.74683517 28.06498604 -40.74683517 28.06498604 -44.04296875 30.61328125 C-44.37941406 31.2578125 -44.71585937 31.90234375 -45.0625 32.56640625 C-35.63380123 33.89008966 -26.50593382 33.28601141 -17.0625 32.56640625 C-17.0625 31.90640625 -17.0625 31.24640625 -17.0625 30.56640625 C-16.4025 30.23640625 -15.7425 29.90640625 -15.0625 29.56640625 C-16.135 29.48390625 -17.2075 29.40140625 -18.3125 29.31640625 C-22.3363451 28.51163723 -23.54419253 27.68910751 -26.0625 24.56640625 Z M-10.0625 35.56640625 C-10.3925 37.21640625 -10.7225 38.86640625 -11.0625 40.56640625 C-9.4125 40.23640625 -7.7625 39.90640625 -6.0625 39.56640625 C-6.3925 38.24640625 -6.7225 36.92640625 -7.0625 35.56640625 C-8.0525 35.56640625 -9.0425 35.56640625 -10.0625 35.56640625 Z M-84.69140625 72.09765625 C-85.32949219 72.74734375 -85.96757812 73.39703125 -86.625 74.06640625 C-87.26566406 74.71609375 -87.90632813 75.36578125 -88.56640625 76.03515625 C-89.06011719 76.54046875 -89.55382812 77.04578125 -90.0625 77.56640625 C-89.10828192 78.71566891 -88.14897955 79.86071166 -87.1875 81.00390625 C-86.65382812 81.64199219 -86.12015625 82.28007812 -85.5703125 82.9375 C-84.1402243 84.67445629 -84.1402243 84.67445629 -82.0625 85.56640625 C-82.0625 80.61640625 -82.0625 75.66640625 -82.0625 70.56640625 C-83.31367073 70.45225149 -83.31367073 70.45225149 -84.69140625 72.09765625 Z M-98.0625 85.56640625 C-98.0625 86.22640625 -98.0625 86.88640625 -98.0625 87.56640625 C-99.0525 88.06140625 -99.0525 88.06140625 -100.0625 88.56640625 C-99.13566406 89.48164063 -98.20882812 90.396875 -97.25390625 91.33984375 C-96.04413961 92.54023235 -94.83451135 93.74076042 -93.625 94.94140625 C-93.01333984 95.5446875 -92.40167969 96.14796875 -91.77148438 96.76953125 C-91.18818359 97.34960938 -90.60488281 97.9296875 -90.00390625 98.52734375 C-89.19481812 99.32857666 -89.19481812 99.32857666 -88.36938477 100.14599609 C-87.0625 101.56640625 -87.0625 101.56640625 -86.0625 103.56640625 C-85.4025 103.56640625 -84.7425 103.56640625 -84.0625 103.56640625 C-84.0625 104.22640625 -84.0625 104.88640625 -84.0625 105.56640625 C-83.4025 105.56640625 -82.7425 105.56640625 -82.0625 105.56640625 C-82.0625 106.22640625 -82.0625 106.88640625 -82.0625 107.56640625 C-80.64273447 108.96223197 -80.64273447 108.96223197 -78.75 110.44140625 C-74.67967654 113.89868625 -71.13832269 117.67521972 -67.57543945 121.64746094 C-63.08445177 126.61976384 -58.35436047 131.33288299 -53.56982422 136.02172852 C-49.16375455 140.36389714 -49.16375455 140.36389714 -48.0625 142.56640625 C-47.4025 142.56640625 -46.7425 142.56640625 -46.0625 142.56640625 C-46.0625 143.22640625 -46.0625 143.88640625 -46.0625 144.56640625 C-45.4025 144.56640625 -44.7425 144.56640625 -44.0625 144.56640625 C-43.794375 145.16453125 -43.52625 145.76265625 -43.25 146.37890625 C-41.98581195 148.70767372 -41.2484724 150.05883908 -39.0625 151.56640625 C-35.43714024 151.81676395 -35.43714024 151.81676395 -32.0625 151.56640625 C-37.69760183 144.6680942 -44.04636259 138.50440085 -50.375 132.25390625 C-52.56145959 130.09401437 -54.74459354 127.93083907 -56.92578125 125.765625 C-57.67726189 125.02659187 -57.67726189 125.02659187 -58.44392395 124.27262878 C-61.94973624 120.79193376 -61.94973624 120.79193376 -63.0625 118.56640625 C-63.7225 118.56640625 -64.3825 118.56640625 -65.0625 118.56640625 C-65.0625 117.90640625 -65.0625 117.24640625 -65.0625 116.56640625 C-65.7225 116.56640625 -66.3825 116.56640625 -67.0625 116.56640625 C-67.0625 115.90640625 -67.0625 115.24640625 -67.0625 114.56640625 C-67.7225 114.56640625 -68.3825 114.56640625 -69.0625 114.56640625 C-69.30347412 113.99873535 -69.54444824 113.43106445 -69.79272461 112.84619141 C-71.31672183 110.10997029 -73.14028292 108.28008818 -75.37890625 106.08984375 C-76.22517578 105.25453125 -77.07144531 104.41921875 -77.94335938 103.55859375 C-78.82830078 102.69492187 -79.71324219 101.83125 -80.625 100.94140625 C-82.37847382 99.2222644 -84.12988575 97.50101612 -85.87890625 95.77734375 C-86.65693604 95.01728027 -87.43496582 94.2572168 -88.23657227 93.47412109 C-90.0625 91.56640625 -90.0625 91.56640625 -91.0625 89.56640625 C-91.7225 89.56640625 -92.3825 89.56640625 -93.0625 89.56640625 C-93.0625 88.90640625 -93.0625 88.24640625 -93.0625 87.56640625 C-95.5375 86.57640625 -95.5375 86.57640625 -98.0625 85.56640625 Z M-39.0625 159.56640625 C-38.7325 161.21640625 -38.4025 162.86640625 -38.0625 164.56640625 C-36.08713255 164.21853917 -36.08713255 164.21853917 -34.0625 163.56640625 C-33.7325 162.90640625 -33.4025 162.24640625 -33.0625 161.56640625 C-33.7225 160.57640625 -34.3825 159.58640625 -35.0625 158.56640625 C-37.1370356 158.41733505 -37.1370356 158.41733505 -39.0625 159.56640625 Z"/>
<path transform="translate(297,157)" fill="#8796A7" d="M0 0 C2.8245106 4.23676589 2.8974329 8.02838059 2 13 C-0.97265156 16.48017743 -2.99156095 17.76164168 -7.4375 18.8125 C-12.52847788 20.50949263 -14.73963061 23.89615196 -18 28 C-20.3125 30.5 -20.3125 30.5 -22 32 C-22.66 32 -23.32 32 -24 32 C-24 32.66 -24 33.32 -24 34 C-24.66 34 -25.32 34 -26 34 C-26 34.66 -26 35.32 -26 36 C-26.66 36 -27.32 36 -28 36 C-28.33837891 36.83144531 -28.33837891 36.83144531 -28.68359375 37.6796875 C-30.38866286 40.68506155 -32.57799951 42.72987003 -35.0625 45.125 C-38.46453483 48.24105765 -38.46453483 48.24105765 -41 52 C-41.66 52 -42.32 52 -43 52 C-43 52.66 -43 53.32 -43 54 C-44.64351457 55.36176922 -46.31522656 56.68962066 -48 58 C-50.45524406 60.33832768 -52.68838843 62.57297673 -54.6875 65.3125 C-55.120625 65.869375 -55.55375 66.42625 -56 67 C-56.66 67 -57.32 67 -58 67 C-58 67.66 -58 68.32 -58 69 C-58.66 69 -59.32 69 -60 69 C-60 69.66 -60 70.32 -60 71 C-60.66 71 -61.32 71 -62 71 C-62.268125 71.598125 -62.53625 72.19625 -62.8125 72.8125 C-63.99917406 74.99847854 -65.09599113 76.41332594 -67 78 C-67.66 78 -68.32 78 -69 78 C-69 78.66 -69 79.32 -69 80 C-69.66 80 -70.32 80 -71 80 C-71 80.66 -71 81.32 -71 82 C-71.66 82 -72.32 82 -73 82 C-73 82.66 -73 83.32 -73 84 C-73.66 84 -74.32 84 -75 84 C-75.20939209 84.53608887 -75.41878418 85.07217773 -75.63452148 85.62451172 C-77.5300125 88.92204928 -80.14763885 91.37324428 -82.84765625 94.0078125 C-83.41955185 94.57450653 -83.99144745 95.14120056 -84.58067322 95.72506714 C-86.40325225 97.52987272 -88.23239074 99.32783318 -90.0625 101.125 C-91.89528621 102.93017315 -93.72659529 104.73678389 -95.55503845 106.5463562 C-96.69192031 107.67097536 -97.83146458 108.79291063 -98.97389221 109.91189575 C-103.00997016 113.89669192 -104.13480209 115.60653125 -104.18554688 121.3125 C-104.18619141 121.993125 -104.18683594 122.67375 -104.1875 123.375 C-104.19974609 124.04789062 -104.21199219 124.72078125 -104.22460938 125.4140625 C-104.23575108 129.18738687 -103.88958277 131.74235931 -102 135 C-102.2017323 137.75700808 -102.70529571 139.50882618 -104.125 141.875 C-107.18336891 143.71002135 -109.65608204 142.79038061 -113 142 C-115 140 -115 140 -115.1953125 138.0546875 C-115.09765625 135.02734375 -115.09765625 135.02734375 -115 132 C-114.34 132 -113.68 132 -113 132 C-113.00222061 131.22547989 -113.00444122 130.45095978 -113.00672913 129.65296936 C-113.02673134 122.36878979 -113.04197377 115.08462345 -113.05181217 107.80042362 C-113.05704014 104.05516963 -113.06413622 100.30993824 -113.07543945 96.56469727 C-113.08627141 92.95318313 -113.09227749 89.34169079 -113.09487724 85.73016167 C-113.09673094 84.34939671 -113.10035049 82.968633 -113.10573006 81.58787727 C-113.11294447 79.66024048 -113.11340809 77.73258193 -113.11352539 75.80493164 C-113.115746 74.70572891 -113.11796661 73.60652618 -113.12025452 72.47401428 C-113 70 -113 70 -112 69 C-109.69 69 -107.38 69 -105 69 C-104.67 79.89 -104.34 90.78 -104 102 C-102.68 100.35 -101.36 98.7 -100 97 C-99.34 97 -98.68 97 -98 97 C-98 96.34 -98 95.68 -98 95 C-97.34 95 -96.68 95 -96 95 C-96 94.34 -96 93.68 -96 93 C-95.34 93 -94.68 93 -94 93 C-94 92.34 -94 91.68 -94 91 C-93.34 91 -92.68 91 -92 91 C-92 90.34 -92 89.68 -92 89 C-91.34 89 -90.68 89 -90 89 C-90 88.34 -90 87.68 -90 87 C-89.34 87 -88.68 87 -88 87 C-88 86.34 -88 85.68 -88 85 C-87.34 85 -86.68 85 -86 85 C-85.731875 84.401875 -85.46375 83.80375 -85.1875 83.1875 C-84.00082594 81.00152146 -82.90400887 79.58667406 -81 78 C-80.34 78 -79.68 78 -79 78 C-79 77.34 -79 76.68 -79 76 C-78.34 76 -77.68 76 -77 76 C-77 75.34 -77 74.68 -77 74 C-76.34 74 -75.68 74 -75 74 C-74.67261841 73.18257324 -74.67261841 73.18257324 -74.33862305 72.34863281 C-72.55652341 69.22191413 -70.1380162 66.91100199 -67.58203125 64.421875 C-67.04656174 63.89160706 -66.51109222 63.36133911 -65.95939636 62.81500244 C-64.24846248 61.12182944 -62.53101232 59.43547792 -60.8125 57.75 C-58.5655833 55.5399075 -56.3222578 53.32624814 -54.08203125 51.109375 C-53.54482452 50.57920776 -53.0076178 50.04904053 -52.45413208 49.50280762 C-48.85869738 45.92893004 -45.47933992 42.2359406 -42.27612305 38.30175781 C-41.85500244 37.87217773 -41.43388184 37.44259766 -41 37 C-40.34 37 -39.68 37 -39 37 C-38.34 35.68 -37.68 34.36 -37 33 C-36.34 33 -35.68 33 -35 33 C-35 32.34 -35 31.68 -35 31 C-34.34 31 -33.68 31 -33 31 C-33 30.34 -33 29.68 -33 29 C-32.34 29 -31.68 29 -31 29 C-30.731875 28.41734375 -30.46375 27.8346875 -30.1875 27.234375 C-28.98519009 24.97213399 -27.66174087 23.19423682 -26 21.25 C-25.484375 20.63640625 -24.96875 20.0228125 -24.4375 19.390625 C-23 18 -23 18 -21 18 C-21 17.34 -21 16.68 -21 16 C-20.34 16 -19.68 16 -19 16 C-18.34316469 13.20844993 -18.00371487 10.81797117 -18.0625 7.9375 C-17.99933439 4.96871644 -17.53406269 3.49285187 -16 1 C-15.34 1 -14.68 1 -14 1 C-14 0.34 -14 -0.32 -14 -1 C-9.11825767 -3.99203562 -4.80892091 -2.46587103 0 0 Z M-9 5 C-9.33 6.65 -9.66 8.3 -10 10 C-8.68 10.33 -7.36 10.66 -6 11 C-5.67 9.35 -5.34 7.7 -5 6 C-6.32 5.67 -7.64 5.34 -9 5 Z"/>
<path transform="translate(180,176)" fill="#7E8DA0" d="M0 0 C2.04272441 2.12831342 3.23637931 4.14647004 4 7 C3.31646074 11.10123557 2.30110641 13.54834039 0 17 C-0.66 17 -1.32 17 -2 17 C-1.96283535 31.53405636 -1.90271436 46.06786202 -1.81609726 60.60171127 C-1.77628624 67.35003814 -1.74390436 74.09824805 -1.72900391 80.84667969 C-1.71460913 87.35664268 -1.67952156 93.86630184 -1.63169098 100.37610626 C-1.61682881 102.86241764 -1.60895623 105.34878075 -1.60811615 107.83513641 C-1.60575937 111.31203567 -1.57878205 114.78792285 -1.54589844 118.26464844 C-1.5509288 119.29755005 -1.55595917 120.33045166 -1.56114197 121.39465332 C-1.59197287 126.88834039 -1.59197287 126.88834039 0.98944092 131.54815674 C1.65292542 132.02726501 2.31640991 132.50637329 3 133 C4.41477087 136.88868715 4.3928934 140.09634518 2.75 143.875 C0.74549054 146.3090472 -0.91976236 147.80782289 -4.0859375 148.37109375 C-8.33203313 148.494274 -10.40730178 148.40748002 -14 145.9375 C-16.40813237 142.40055558 -17 140.27436594 -17 136 C-14.82758621 130.4137931 -14.82758621 130.4137931 -12 129 C-11.90656201 114.59654467 -11.83628946 100.19313633 -11.79275131 85.78944016 C-11.77185744 79.10154098 -11.74400423 72.41385159 -11.69824219 65.72607422 C-11.65484957 59.27459967 -11.63087646 52.82332092 -11.62049103 46.37171173 C-11.61308789 43.90766567 -11.59863172 41.44363059 -11.57707977 38.97966766 C-11.54813428 35.53405923 -11.54404042 32.08926471 -11.54589844 28.64355469 C-11.53151733 27.62000381 -11.51713623 26.59645294 -11.50231934 25.54188538 C-11.42243268 20.08546524 -11.42243268 20.08546524 -13.98370361 15.45758057 C-14.64908142 14.97657898 -15.31445923 14.49557739 -16 14 C-17.37075418 10.23229862 -17.33485762 6.94178705 -16 3.1875 C-11.27784715 -1.97735468 -6.2536698 -3.06783802 0 0 Z M-9 7 C-9.33 7.99 -9.66 8.98 -10 10 C-9.34 10.66 -8.68 11.32 -8 12 C-5.91666667 11.83333333 -5.91666667 11.83333333 -4 11 C-3.67 10.34 -3.34 9.68 -3 9 C-3.33 8.34 -3.66 7.68 -4 7 C-5.65 7 -7.3 7 -9 7 Z M-10 136 C-10 136.99 -10 137.98 -10 139 C-7.69 139 -5.38 139 -3 139 C-3.66 137.68 -4.32 136.36 -5 135 C-7.9254644 134.7763932 -7.9254644 134.7763932 -10 136 Z"/>
<path transform="translate(206,174)" fill="#8A98A9" d="M0 0 C1.59865963 1.59865963 1.16483531 3.30456032 1.20532227 5.51977539 C1.22526749 6.48069595 1.24521271 7.44161652 1.26576233 8.43165588 C1.28247482 9.476436 1.29918732 10.52121613 1.31640625 11.59765625 C1.33718735 12.66165146 1.35796844 13.72564667 1.37937927 14.82188416 C1.44499254 18.2353544 1.50381423 21.64890429 1.5625 25.0625 C1.60567403 27.37045109 1.64928794 29.678394 1.69335938 31.98632812 C1.80068584 37.65746682 1.90242992 43.32868552 2 49 C4.83318929 46.19151323 7.66309621 43.379765 10.48999023 40.56494141 C11.45230695 39.60765619 12.41551892 38.65127006 13.37963867 37.69580078 C14.76455445 36.32300212 16.14599991 34.94670528 17.52734375 33.5703125 C18.35999756 32.74289551 19.19265137 31.91547852 20.05053711 31.06298828 C22.0444054 29.15224807 22.0444054 29.15224807 23 27 C23.66 27 24.32 27 25 27 C25 26.34 25 25.68 25 25 C25.66 25 26.32 25 27 25 C27 24.34 27 23.68 27 23 C29.375 20.375 29.375 20.375 32 18 C32.66 18 33.32 18 34 18 C34 17.34 34 16.68 34 16 C34.66 16 35.32 16 36 16 C36 15.34 36 14.68 36 14 C36.66 14 37.32 14 38 14 C38 13.34 38 12.68 38 12 C38.66 12 39.32 12 40 12 C40 11.34 40 10.68 40 10 C40.66 10 41.32 10 42 10 C42 9.34 42 8.68 42 8 C42.66 8 43.32 8 44 8 C44.2475 7.4225 44.495 6.845 44.75 6.25 C46.25037751 3.54932048 47.57598588 1.93921129 50 0 C53.234375 -0.390625 53.234375 -0.390625 56.75 -0.25 C57.92046875 -0.21390625 59.0909375 -0.1778125 60.296875 -0.140625 C61.18890625 -0.09421875 62.0809375 -0.0478125 63 0 C61.62177144 3.12672749 60.03754129 5.15802544 57.5625 7.5 C55.56077596 9.43112381 53.85248362 11.1983841 52.1875 13.4375 C51.795625 13.953125 51.40375 14.46875 51 15 C50.34 15 49.68 15 49 15 C48.67 15.99 48.34 16.98 48 18 C47.34 18 46.68 18 46 18 C46 18.66 46 19.32 46 20 C45.34 20 44.68 20 44 20 C44 20.66 44 21.32 44 22 C43.34 22 42.68 22 42 22 C41.76366852 22.56164856 41.52733704 23.12329712 41.28384399 23.70196533 C39.69853531 26.53961098 37.76431122 28.47507012 35.45849609 30.76855469 C34.99978622 31.22755661 34.54107635 31.68655853 34.06846619 32.1594696 C32.5581509 33.66839675 31.04088612 35.17012454 29.5234375 36.671875 C28.4721083 37.71947224 27.42122115 38.76751328 26.37075806 39.815979 C23.60998984 42.5691252 20.84326751 45.31621127 18.07525635 48.06207275 C15.24967072 50.86716916 12.42976555 53.67796321 9.609375 56.48828125 C4.07845626 61.99777532 -1.45876589 67.50087877 -7 73 C-7.66 72.67 -8.32 72.34 -9 72 C-9 48.57 -9 25.14 -9 1 C-5.78419562 -0.07193479 -3.36629251 -0.14636054 0 0 Z"/>
<path transform="translate(291.171875,230.82421875)" fill="#8291A4" d="M0 0 C0.60328125 0.05800781 1.2065625 0.11601562 1.828125 0.17578125 C1.828125 0.83578125 1.828125 1.49578125 1.828125 2.17578125 C19.318125 2.50578125 36.808125 2.83578125 54.828125 3.17578125 C54.828125 23.96578125 54.828125 44.75578125 54.828125 66.17578125 C53.343125 65.68078125 53.343125 65.68078125 51.828125 65.17578125 C51.498125 64.18578125 51.168125 63.19578125 50.828125 62.17578125 C49.838125 61.68078125 49.838125 61.68078125 48.828125 61.17578125 C48.828125 61.83578125 48.828125 62.49578125 48.828125 63.17578125 C48.168125 63.17578125 47.508125 63.17578125 46.828125 63.17578125 C46.828125 46.67578125 46.828125 30.17578125 46.828125 13.17578125 C39.795 13.29953125 32.761875 13.42328125 25.515625 13.55078125 C22.1892395 13.60177979 22.1892395 13.60177979 18.7956543 13.65380859 C17.03953524 13.68901148 15.28343036 13.72493239 13.52734375 13.76171875 C12.1576947 13.77875854 12.1576947 13.77875854 10.76037598 13.79614258 C9.88772095 13.81620361 9.01506592 13.83626465 8.1159668 13.85693359 C7.35873825 13.87025726 6.6015097 13.88358093 5.82133484 13.89730835 C3.51207312 14.07286737 3.51207312 14.07286737 0.828125 16.17578125 C-3.57372498 16.74639143 -5.47024708 16.68334187 -9.109375 14.05078125 C-11.171875 11.17578125 -11.171875 11.17578125 -11.734375 8.17578125 C-10.35212164 0.80376333 -6.85318833 -0.38687353 0 0 Z"/>
<path transform="translate(185,226)" fill="#8392A5" d="M0 0 C2.31 0 4.62 0 7 0 C7 11.22 7 22.44 7 34 C7.66 34.33 8.32 34.66 9 35 C11.2477975 32.94766315 12.0022242 31.99332739 13 29 C13.66 29 14.32 29 15 29 C15.33 28.34 15.66 27.68 16 27 C16.78375 26.731875 17.5675 26.46375 18.375 26.1875 C21.64077146 24.7101272 22.33410406 23.09380675 24 20 C24.66 19.67 25.32 19.34 26 19 C26.99 19.33 27.98 19.66 29 20 C29 20.66 29 21.32 29 22 C28.34 22 27.68 22 27 22 C26.83628906 22.98355469 26.67257813 23.96710938 26.50390625 24.98046875 C24.96683652 30.35818145 20.90696548 33.59134165 16.9375 37.3125 C15.46560041 38.72333547 13.99545665 40.13600578 12.52734375 41.55078125 C11.87499756 42.16606689 11.22265137 42.78135254 10.55053711 43.4152832 C7.36263047 46.67346334 7.81657237 50.07458173 7.8125 54.375 C7.80025391 55.04789062 7.78800781 55.72078125 7.77539062 56.4140625 C7.76424892 60.18738687 8.11041723 62.74235931 10 66 C9.7982677 68.75700808 9.29470429 70.50882618 7.875 72.875 C4.81663109 74.71002135 2.34391796 73.79038061 -1 73 C-3 71 -3 71 -3.1953125 69.0546875 C-3.13020833 67.03645833 -3.06510417 65.01822917 -3 63 C-2.34 63 -1.68 63 -1 63 C-1.00222061 62.22547989 -1.00444122 61.45095978 -1.00672913 60.65296936 C-1.02673134 53.36878979 -1.04197377 46.08462345 -1.05181217 38.80042362 C-1.05704014 35.05516963 -1.06413622 31.30993824 -1.07543945 27.56469727 C-1.08627141 23.95318313 -1.09227749 20.34169079 -1.09487724 16.73016167 C-1.09673094 15.34939671 -1.10035049 13.968633 -1.10573006 12.58787727 C-1.11294447 10.66024048 -1.11340809 8.73258193 -1.11352539 6.80493164 C-1.115746 5.70572891 -1.11796661 4.60652618 -1.12025452 3.47401428 C-1 1 -1 1 0 0 Z"/>
<path transform="translate(346,235)" fill="#7F90A2" d="M0 0 C0.33 0 0.66 0 1 0 C1.18595539 8.07577692 1.3278001 16.15064917 1.41449738 24.2280426 C1.45612438 27.97946163 1.51251069 31.72940864 1.60351562 35.47998047 C1.69090763 39.10463752 1.73836794 42.72788583 1.75901794 46.35351562 C1.77371844 47.73150807 1.80242791 49.10942952 1.84584045 50.48681641 C2.1711501 61.24310967 2.1711501 61.24310967 -0.73095703 65.59667969 C-2.72232671 67.61675133 -4.713508 69.32732296 -7 71 C-8.4540625 72.175625 -8.4540625 72.175625 -9.9375 73.375 C-10.618125 73.91125 -11.29875 74.4475 -12 75 C-12.33 75.66 -12.66 76.32 -13 77 C-13.66 77 -14.32 77 -15 77 C-15.66 78.32 -16.32 79.64 -17 81 C-17.66 81 -18.32 81 -19 81 C-19 81.66 -19 82.32 -19 83 C-25.29144313 89.16291296 -33.01400358 88.00738666 -41.31542969 88.109375 C-48.41354459 87.91041408 -53.31909968 87.27764179 -58.60742188 82.34155273 C-60.98378843 79.6773237 -63.04484425 76.99023821 -65 74 C-62.13411489 72.56705745 -60.09628564 73.43129447 -57 74 C-56.01 74 -55.02 74 -54 74 C-54 75.32 -54 76.64 -54 78 C-53.34 78 -52.68 78 -52 78 C-52 76.02 -52 74.04 -52 72 C-46.39 72 -40.78 72 -35 72 C-35 72.33 -35 72.66 -35 73 C-39.95 73.33 -44.9 73.66 -50 74 C-46.32990227 77.67009773 -45.07361304 77.43173047 -40.17773438 77.5078125 C-39.31470703 77.50523437 -38.45167969 77.50265625 -37.5625 77.5 C-36.70333984 77.52835937 -35.84417969 77.55671875 -34.95898438 77.5859375 C-32.53006347 77.59347488 -30.37116157 77.5318072 -28 77 C-25.49953368 74.62417769 -25.49953368 74.62417769 -24 72 C-23.34 72 -22.68 72 -22 72 C-22 71.34 -22 70.68 -22 70 C-21.34 70 -20.68 70 -20 70 C-20 69.34 -20 68.68 -20 68 C-19.34 68 -18.68 68 -18 68 C-18 67.34 -18 66.68 -18 66 C-16.50390625 64.5625 -16.50390625 64.5625 -14.5625 63 C-11.84811762 60.85474956 -11.84811762 60.85474956 -10 58 C-9.88159887 56.42793357 -9.82296967 54.85116731 -9.79467773 53.27490234 C-9.77473251 52.29403656 -9.75478729 51.31317078 -9.73423767 50.30258179 C-9.71752518 49.24108917 -9.70081268 48.17959656 -9.68359375 47.0859375 C-9.66281265 46.00116119 -9.64203156 44.91638489 -9.62062073 43.79873657 C-9.55509366 40.32422379 -9.49622553 36.84963376 -9.4375 33.375 C-9.39431779 31.02342942 -9.3507036 28.67186674 -9.30664062 26.3203125 C-9.19940907 20.5469573 -9.09764856 14.7735248 -9 9 C-8.67 9 -8.34 9 -8 9 C-8 25.5 -8 42 -8 59 C-7.34 59 -6.68 59 -6 59 C-6 58.34 -6 57.68 -6 57 C-5.01 57.33 -4.02 57.66 -3 58 C-2.67 58.99 -2.34 59.98 -2 61 C-1.34 61.33 -0.68 61.66 0 62 C0 41.54 0 21.08 0 0 Z"/>
<path transform="translate(317.21875,247.8671875)" fill="#97A4B2" d="M0 0 C1.27423828 -0.00193359 1.27423828 -0.00193359 2.57421875 -0.00390625 C3.91419922 0.00189453 3.91419922 0.00189453 5.28125 0.0078125 C6.17457031 0.00394531 7.06789063 0.00007812 7.98828125 -0.00390625 C8.83777344 -0.00261719 9.68726563 -0.00132812 10.5625 0 C11.34689453 0.00112793 12.13128906 0.00225586 12.93945312 0.00341797 C14.78125 0.1328125 14.78125 0.1328125 15.78125 1.1328125 C15.88244282 4.21193809 15.92093327 7.26816749 15.9140625 10.34765625 C15.91501923 11.27373184 15.91597595 12.19980743 15.91696167 13.15394592 C15.91764362 15.11687284 15.91578832 17.079802 15.91162109 19.04272461 C15.90627907 22.05392513 15.91156247 25.06497607 15.91796875 28.07617188 C15.91730785 29.979167 15.91602645 31.88216203 15.9140625 33.78515625 C15.91608673 34.69039536 15.91811096 35.59563446 15.92019653 36.52830505 C15.91546829 37.7845443 15.91546829 37.7845443 15.91064453 39.06616211 C15.90984894 39.80483017 15.90905334 40.54349823 15.90823364 41.30455017 C15.78125 43.1328125 15.78125 43.1328125 14.78125 45.1328125 C14.12125 45.1328125 13.46125 45.1328125 12.78125 45.1328125 C12.55308594 45.68582031 12.32492187 46.23882812 12.08984375 46.80859375 C10.40582111 49.79961904 8.27581758 51.90253019 5.84375 54.3203125 C4.96847656 55.20074219 4.09320313 56.08117187 3.19140625 56.98828125 C0.78125 59.1328125 0.78125 59.1328125 -2.21875 60.1328125 C-3.20875 59.1428125 -4.19875 58.1528125 -5.21875 57.1328125 C-4.55875 55.4828125 -3.89875 53.8328125 -3.21875 52.1328125 C-13.11875 52.1328125 -23.01875 52.1328125 -33.21875 52.1328125 C-32.88875 51.4728125 -32.55875 50.8128125 -32.21875 50.1328125 C-22.31875 50.1328125 -12.41875 50.1328125 -2.21875 50.1328125 C-2.21875 49.4728125 -2.21875 48.8128125 -2.21875 48.1328125 C-0.23614574 46.44548973 1.7644842 44.77915193 3.78125 43.1328125 C4.27625 42.1428125 4.27625 42.1428125 4.78125 41.1328125 C5.44125 41.1328125 6.10125 41.1328125 6.78125 41.1328125 C6.78125 30.5728125 6.78125 20.0128125 6.78125 9.1328125 C2.32625 9.6278125 2.32625 9.6278125 -2.21875 10.1328125 C-3.20875 9.8028125 -4.19875 9.4728125 -5.21875 9.1328125 C-5.31640625 2.98046875 -5.31640625 2.98046875 -5.21875 1.1328125 C-3.66268249 -0.42325501 -2.15917629 0.00310481 0 0 Z"/>
<path transform="translate(256,216)" fill="#8292A3" d="M0 0 C2 2 2 2 2 4 C2.66 4.66 3.32 5.32 4 6 C2.34215761 10.71847449 2.34215761 10.71847449 0.45556641 12.27075195 C-1.72175509 14.85746248 -1.41895726 17.01787716 -1.4765625 20.35546875 C-1.52296875 22.24942383 -1.52296875 22.24942383 -1.5703125 24.18164062 C-1.58926418 25.51691702 -1.60748792 26.85220394 -1.625 28.1875 C-1.94134446 44.17080404 -1.94134446 44.17080404 -3 51 C-3.66 51 -4.32 51 -5 51 C-5.12375 50.360625 -5.2475 49.72125 -5.375 49.0625 C-5.58125 48.381875 -5.7875 47.70125 -6 47 C-6.66 46.67 -7.32 46.34 -8 46 C-8.625 42.9375 -8.625 42.9375 -9 40 C-9.66 40 -10.32 40 -11 40 C-11.66 35.38 -12.32 30.76 -13 26 C-13.99 26.66 -14.98 27.32 -16 28 C-17.32 26.68 -18.64 25.36 -20 24 C-18.34297849 15.94344713 -14.26354724 11.18147263 -8 6 C-6.3462507 4.97877963 -4.68144105 3.97495321 -3 3 C-1.24850835 1.41754725 -1.24850835 1.41754725 0 0 Z"/>
<path transform="translate(238,232)" fill="#8A98AA" d="M0 0 C0 3.11227195 -0.45627049 5.94152152 -1 9 C-0.01 9.66 0.98 10.32 2 11 C1.67 11.598125 1.34 12.19625 1 12.8125 C-0.20787988 15.05386471 -0.20787988 15.05386471 0 18 C2.43750025 20.68767578 2.43750025 20.68767578 5 23 C5.33 20.03 5.66 17.06 6 14 C6.33 14 6.66 14 7 14 C7.04898438 14.63808594 7.09796875 15.27617187 7.1484375 15.93359375 C7.22320312 16.75988281 7.29796875 17.58617187 7.375 18.4375 C7.44460937 19.26121094 7.51421875 20.08492187 7.5859375 20.93359375 C7.72257812 21.61550781 7.85921875 22.29742187 8 23 C8.66 23.33 9.32 23.66 10 24 C10 24.99 10 25.98 10 27 C10.66 27.33 11.32 27.66 12 28 C12 28.99 12 29.98 12 31 C12.3062434 32.33981486 12.63451555 33.67511887 13 35 C13.66 35 14.32 35 15 35 C15 32.36 15 29.72 15 27 C15.33 27 15.66 27 16 27 C16.495 31.455 16.495 31.455 17 36 C14.525 36.495 14.525 36.495 12 37 C11.67 38.98 11.34 40.96 11 43 C0.75285171 34.42585551 0.75285171 34.42585551 -3 30 C-3 29.34 -3 28.68 -3 28 C-3.66 28 -4.32 28 -5 28 C-5 27.34 -5 26.68 -5 26 C-5.99 25.67 -6.98 25.34 -8 25 C-7.401875 24.896875 -6.80375 24.79375 -6.1875 24.6875 C-3.71756736 23.91123545 -2.67748765 22.92911079 -1 21 C-1.515625 20.5875 -2.03125 20.175 -2.5625 19.75 C-3.036875 19.1725 -3.51125 18.595 -4 18 C-3.6875 15.8125 -3.6875 15.8125 -3 14 C-6.3863251 12.49069817 -6.3863251 12.49069817 -10 12 C-10.66 13.32 -11.32 14.64 -12 16 C-11.67 16.33 -11.34 16.66 -11 17 C-11 17.99 -11 18.98 -11 20 C-10.34 20.33 -9.68 20.66 -9 21 C-10.32 22.32 -11.64 23.64 -13 25 C-13.598125 24.690625 -14.19625 24.38125 -14.8125 24.0625 C-17.08956772 22.89790296 -17.08956772 22.89790296 -20 22 C-14.35637649 13.70055366 -7.15462835 6.97821286 0 0 Z"/>
<path transform="translate(233.125,243.9375)" fill="#7F90A3" d="M0 0 C0.94875 0.350625 1.8975 0.70125 2.875 1.0625 C2.545 3.3725 2.215 5.6825 1.875 8.0625 C2.865 8.3925 3.855 8.7225 4.875 9.0625 C4.875 9.7225 4.875 10.3825 4.875 11.0625 C-1.41071429 13.49107143 -1.41071429 13.49107143 -5.125 12.0625 C-6.22398702 15.35946105 -5.99624444 16.46744903 -5.1875 19.75 C-4.99285156 20.55824219 -4.79820312 21.36648438 -4.59765625 22.19921875 C-4.44167969 22.81410156 -4.28570312 23.42898438 -4.125 24.0625 C-4.785 24.3925 -5.445 24.7225 -6.125 25.0625 C-7.80040664 24.41811283 -9.46683216 23.75003301 -11.125 23.0625 C-12.115 23.0625 -13.105 23.0625 -14.125 23.0625 C-14.785 25.0425 -15.445 27.0225 -16.125 29.0625 C-15.465 29.3925 -14.805 29.7225 -14.125 30.0625 C-17.74473402 31.37876692 -20.22067131 32.0625 -24.125 32.0625 C-24.125 31.0725 -24.125 30.0825 -24.125 29.0625 C-25.115 28.4025 -26.105 27.7425 -27.125 27.0625 C-26.53598089 23.77979591 -25.50676788 22.05579724 -23.25 19.625 C-21.3057261 17.47752408 -19.96145883 15.76158425 -18.5625 13.1875 C-17.125 11.0625 -17.125 11.0625 -14.625 10.25 C-12.125 10.0625 -12.125 10.0625 -9.125 10.0625 C-8.795 10.7225 -8.465 11.3825 -8.125 12.0625 C-7.465 12.0625 -6.805 12.0625 -6.125 12.0625 C-5.8268576 8.2861068 -5.8268576 8.2861068 -7.125 6.0625 C-7.785 5.7325 -8.445 5.4025 -9.125 5.0625 C-4.25 -1.275 -4.25 -1.275 0 0 Z M-0.125 6.0625 C0.875 8.0625 0.875 8.0625 0.875 8.0625 Z"/>
<path transform="translate(346,235)" fill="#A6B2BF" d="M0 0 C0.33 0 0.66 0 1 0 C1.18595539 8.07577692 1.3278001 16.15064917 1.41449738 24.2280426 C1.45612438 27.97946163 1.51251069 31.72940864 1.60351562 35.47998047 C1.69090763 39.10463752 1.73836794 42.72788583 1.75901794 46.35351562 C1.77371844 47.73150807 1.80242791 49.10942952 1.84584045 50.48681641 C2.1711501 61.24310967 2.1711501 61.24310967 -0.73095703 65.59667969 C-2.72232671 67.61675133 -4.713508 69.32732296 -7 71 C-8.4540625 72.175625 -8.4540625 72.175625 -9.9375 73.375 C-10.618125 73.91125 -11.29875 74.4475 -12 75 C-12.495 75.99 -12.495 75.99 -13 77 C-13.66 77 -14.32 77 -15 77 C-15.66 78.32 -16.32 79.64 -17 81 C-19 78 -19 78 -19 75 C-21.43717258 75.27034634 -21.43717258 75.27034634 -24 76 C-24.66 76.99 -25.32 77.98 -26 79 C-26.66 79 -27.32 79 -28 79 C-26.79618552 76.50638429 -25.54571278 74.31856917 -24 72 C-23.34 72 -22.68 72 -22 72 C-22 71.34 -22 70.68 -22 70 C-21.34 70 -20.68 70 -20 70 C-20 69.34 -20 68.68 -20 68 C-19.34 68 -18.68 68 -18 68 C-18 67.34 -18 66.68 -18 66 C-16.50390625 64.5625 -16.50390625 64.5625 -14.5625 63 C-11.84811762 60.85474956 -11.84811762 60.85474956 -10 58 C-9.88159887 56.42793357 -9.82296967 54.85116731 -9.79467773 53.27490234 C-9.77473251 52.29403656 -9.75478729 51.31317078 -9.73423767 50.30258179 C-9.71752518 49.24108917 -9.70081268 48.17959656 -9.68359375 47.0859375 C-9.66281265 46.00116119 -9.64203156 44.91638489 -9.62062073 43.79873657 C-9.55509366 40.32422379 -9.49622553 36.84963376 -9.4375 33.375 C-9.39431779 31.02342942 -9.3507036 28.67186674 -9.30664062 26.3203125 C-9.19940907 20.5469573 -9.09764856 14.7735248 -9 9 C-8.67 9 -8.34 9 -8 9 C-8 25.5 -8 42 -8 59 C-7.34 59 -6.68 59 -6 59 C-6 58.34 -6 57.68 -6 57 C-4.515 57.495 -4.515 57.495 -3 58 C-2.67 58.99 -2.34 59.98 -2 61 C-1.34 61.33 -0.68 61.66 0 62 C0 41.54 0 21.08 0 0 Z"/>
<path transform="translate(180,176)" fill="#919EAC" d="M0 0 C2.05623082 2.11319012 3.23735568 4.15011859 4 7 C3.31646074 11.10123557 2.30110641 13.54834039 0 17 C-0.66 17 -1.32 17 -2 17 C-2 53.96 -2 90.92 -2 129 C-2.33 129 -2.66 129 -3 129 C-3.00331015 128.44193035 -3.00662029 127.8838607 -3.01003075 127.30887985 C-3.09125148 113.72974486 -3.18346615 100.15072285 -3.28752708 86.57174301 C-3.33751728 80.00504426 -3.3838472 73.43836182 -3.421875 66.87158203 C-3.45869321 60.53675356 -3.50504394 54.20206059 -3.55806351 47.86734772 C-3.57662585 45.44801455 -3.59172696 43.02865231 -3.60334396 40.60927582 C-3.62017471 37.22602907 -3.64920261 33.84309391 -3.68115234 30.45996094 C-3.68331253 29.45511154 -3.68547272 28.45026215 -3.68769836 27.41496277 C-3.70444359 26.0310006 -3.70444359 26.0310006 -3.7215271 24.61907959 C-3.72705786 23.81896328 -3.73258862 23.01884697 -3.73828697 22.19448471 C-4.28630695 17.59929329 -6.70402316 15.07624505 -10 12 C-9.67 11.34 -9.34 10.68 -9 10 C-7.68 10.33 -6.36 10.66 -5 11 C-4.67 9.68 -4.34 8.36 -4 7 C-5.65 7 -7.3 7 -9 7 C-9.33 7.66 -9.66 8.32 -10 9 C-11.98 8.34 -13.96 7.68 -16 7 C-16.33 8.32 -16.66 9.64 -17 11 C-16.63338088 3.66761769 -16.63338088 3.66761769 -13.6875 0.5625 C-8.53578876 -2.43268095 -5.64930837 -2.42113216 0 0 Z"/>
<path transform="translate(322,199)" fill="#7D8C9C" d="M0 0 C2.69207751 1.68254844 3.65216939 2.83732147 4.55859375 5.8671875 C5.20356259 9.39124404 5.22407414 11.46929809 3.8125 14.8125 C1.92201757 17.09411672 0.62635816 18.61386653 -2 20 C-6.38939738 20.38503486 -8.28986601 20.47342266 -12 18 C-11.67 16.68 -11.34 15.36 -11 14 C-10.34 14 -9.68 14 -9 14 C-9 11.03 -9 8.06 -9 5 C-12.72614153 6.11854586 -12.72614153 6.11854586 -15 9 C-15.33 8.01 -15.66 7.02 -16 6 C-22.93 5.505 -22.93 5.505 -30 5 C-30 4.67 -30 4.34 -30 4 C-24.39 4 -18.78 4 -13 4 C-13 3.34 -13 2.68 -13 2 C-9.41816699 -2.20476049 -4.87163851 -1.28955137 0 0 Z M-6 7 C-6.33 8.65 -6.66 10.3 -7 12 C-5.35 11.67 -3.7 11.34 -2 11 C-2.33 9.68 -2.66 8.36 -3 7 C-3.99 7 -4.98 7 -6 7 Z"/>
<path transform="translate(282,299)" fill="#7C8CA0" d="M0 0 C10.89 0 21.78 0 33 0 C32.67 1.65 32.34 3.3 32 5 C32 5.99 32 6.98 32 8 C25.4 8 18.8 8 12 8 C12.33 9.32 12.66 10.64 13 12 C12.67 12.66 12.34 13.32 12 14 C11.34 14 10.68 14 10 14 C9.67 13.01 9.34 12.02 9 11 C8.01 11 7.02 11 6 11 C3.65789079 10.36485174 1.32315031 9.7013284 -1 9 C-0.67 7.68 -0.34 6.36 0 5 C-0.66 5 -1.32 5 -2 5 C-2 4.34 -2 3.68 -2 3 C-1.34 3 -0.68 3 0 3 C0 2.01 0 1.02 0 0 Z"/>
<path transform="translate(168,305)" fill="#8391A2" d="M0 0 C0.99 1.32 1.98 2.64 3 4 C2.67 4.66 2.34 5.32 2 6 C2.763125 5.690625 3.52625 5.38125 4.3125 5.0625 C6.18789677 4.32106407 8.08684652 3.63771783 10 3 C10.33 2.01 10.66 1.02 11 0 C14.02791481 2.34419211 15.31900177 4.21948222 15.9375 7.9375 C16.24653317 11.79682116 15.50748254 13.95519977 13 17 C8.97500157 19.68333228 5.72857864 19.79639219 1 19 C-2.67080764 16.47631975 -3.75864984 14.82964117 -5 10.5625 C-5 6.49880033 -4.18224047 4.39459628 -2 1 C-1.34 0.67 -0.68 0.34 0 0 Z M2 7 C2 7.99 2 8.98 2 10 C4.31 10 6.62 10 9 10 C8.34 8.68 7.68 7.36 7 6 C4.0745356 5.7763932 4.0745356 5.7763932 2 7 Z"/>
<path transform="translate(224,227)" fill="#A4ADB8" d="M0 0 C1.43088528 2.86177057 0.59991697 4.93375773 0 8 C3.16666667 6.16666667 3.16666667 6.16666667 5 3 C5.99 3.99 6.98 4.98 8 6 C6.02 6.99 6.02 6.99 4 8 C4 8.66 4 9.32 4 10 C3.34 10 2.68 10 2 10 C2 10.66 2 11.32 2 12 C1.34 12 0.68 12 0 12 C0 12.66 0 13.32 0 14 C-0.66 14 -1.32 14 -2 14 C-2.24492187 14.57234375 -2.48984375 15.1446875 -2.7421875 15.734375 C-4.21110099 18.38024402 -5.95348244 20.14853139 -8.125 22.25 C-8.84945312 22.95640625 -9.57390625 23.6628125 -10.3203125 24.390625 C-10.87460938 24.92171875 -11.42890625 25.4528125 -12 26 C-12.66 25.01 -13.32 24.02 -14 23 C-13.34 23 -12.68 23 -12 23 C-12 22.34 -12 21.68 -12 21 C-11.34 21 -10.68 21 -10 21 C-10 20.34 -10 19.68 -10 19 C-12.40877257 19.11341534 -12.40877257 19.11341534 -15 20 C-16.0064275 21.66279327 -17.00585407 23.32983484 -18 25 C-23.06896552 28 -23.06896552 28 -26 28 C-26.103125 28.763125 -26.20625 29.52625 -26.3125 30.3125 C-27.04364039 33.17059424 -27.76951913 34.15742885 -30 36 C-30.75 34.3125 -30.75 34.3125 -31 32 C-29.1875 29.25 -29.1875 29.25 -27 27 C-26.34 27 -25.68 27 -25 27 C-25 26.34 -25 25.68 -25 25 C-24.34 25 -23.68 25 -23 25 C-23 24.34 -23 23.68 -23 23 C-22.34 23 -21.68 23 -21 23 C-21 22.34 -21 21.68 -21 21 C-20.34 21 -19.68 21 -19 21 C-19 20.34 -19 19.68 -19 19 C-18.34 19 -17.68 19 -17 19 C-17 18.34 -17 17.68 -17 17 C-16.34 17 -15.68 17 -15 17 C-15 16.34 -15 15.68 -15 15 C-14.34 15 -13.68 15 -13 15 C-12.731875 14.401875 -12.46375 13.80375 -12.1875 13.1875 C-11.00082594 11.00152146 -9.90400887 9.58667406 -8 8 C-7.34 8 -6.68 8 -6 8 C-6 7.34 -6 6.68 -6 6 C-5.34 6 -4.68 6 -4 6 C-4 5.34 -4 4.68 -4 4 C-3.34 4 -2.68 4 -2 4 C-1.34 2.68 -0.68 1.36 0 0 Z"/>
<path transform="translate(297,157)" fill="#98A4B2" d="M0 0 C2.82909235 4.24363852 2.64399077 8.01926125 2 13 C0.4375 15.625 0.4375 15.625 -2 17 C-5.75 17.25 -5.75 17.25 -9 17 C-9.33 15.02 -9.66 13.04 -10 11 C-8.68 10.67 -7.36 10.34 -6 10 C-6 8.68 -6 7.36 -6 6 C-8.97 5.505 -8.97 5.505 -12 5 C-11.67 5.33 -11.34 5.66 -11 6 C-10.95919217 7.99958364 -10.95745644 10.00045254 -11 12 C-12.65 12.33 -14.3 12.66 -16 13 C-16.20650776 7.94055982 -15.94160246 3.71532026 -14 -1 C-9.6364878 -4.4379187 -4.5385022 -2.3272084 0 0 Z"/>
<path transform="translate(230,202)" fill="#7F8E9F" d="M0 0 C0.66 0.33 1.32 0.66 2 1 C2 1.99 2 2.98 2 4 C1.34 4 0.68 4 0 4 C0.0928125 4.6290625 0.185625 5.258125 0.28125 5.90625 C0.63201023 10.06526418 0.7125626 12.89908212 -1.60546875 16.48046875 C-3.67306484 18.67219819 -5.39025727 20.48334323 -8 22 C-10.76953125 21.70703125 -10.76953125 21.70703125 -13 21 C-13 20.01 -13 19.02 -13 18 C-13.66 17.34 -14.32 16.68 -15 16 C-12.79904228 11.9612789 -10.21081738 8.97028868 -6.9375 5.75 C-5.62072266 4.44289062 -5.62072266 4.44289062 -4.27734375 3.109375 C-2 1 -2 1 0 0 Z"/>
<path transform="translate(236,292)" fill="#8494A5" d="M0 0 C5.94474547 0.99079091 9.37956877 3.39854721 13.53125 7.7578125 C15.22003478 10.33590416 15.38661445 11.48225945 15 14.5 C14.505 16.2325 14.505 16.2325 14 18 C13.01 18.33 12.02 18.66 11 19 C11 18.34 11 17.68 11 17 C10.319375 16.979375 9.63875 16.95875 8.9375 16.9375 C4.59162968 15.55052011 1.82483354 12.52493637 -1 9 C-1 8.34 -1 7.68 -1 7 C-0.34 7 0.32 7 1 7 C1 5.68 1 4.36 1 3 C0.34 2.67 -0.32 2.34 -1 2 C-0.67 1.34 -0.34 0.68 0 0 Z"/>
<path transform="translate(274,308)" fill="#8D9DAC" d="M0 0 C2 1.375 2 1.375 4 3 C4 3.66 4 4.32 4 5 C4.66 5 5.32 5 6 5 C6 5.66 6 6.32 6 7 C6.66 7 7.32 7 8 7 C8.721875 7.969375 9.44375 8.93875 10.1875 9.9375 C12.45937189 12.82835495 12.92568043 12.98294305 16.8125 13.875 C18.3903125 13.936875 18.3903125 13.936875 20 14 C20 14.33 20 14.66 20 15 C17.69 15 15.38 15 13 15 C13 15.66 13 16.32 13 17 C12.34 17 11.68 17 11 17 C10.731875 17.639375 10.46375 18.27875 10.1875 18.9375 C9 21 9 21 6 22 C5.91878906 21.42507813 5.83757812 20.85015625 5.75390625 20.2578125 C4.7692529 17.30895428 3.20463631 15.97819877 0.9375 13.875 C-0.40998507 12.61987331 -1.73152782 11.33492972 -3 10 C-3 9.34 -3 8.68 -3 8 C-1.68 8 -0.36 8 1 8 C0.4740625 6.8553125 0.4740625 6.8553125 -0.0625 5.6875 C-1 3 -1 3 0 0 Z"/>
<path transform="translate(335,177)" fill="#96A2AF" d="M0 0 C0.99 0 1.98 0 3 0 C3.61514196 7.25867508 3.61514196 7.25867508 0.5625 10.9375 C-0.283125 11.618125 -1.12875 12.29875 -2 13 C-2.33 13.33 -2.66 13.66 -3 14 C-7.42863826 14.54796538 -10.88802858 14.81363762 -14.5625 12.125 C-16 10 -16 10 -16 8 C-20.455 8.495 -20.455 8.495 -25 9 C-25.33 8.34 -25.66 7.68 -26 7 C-19.565 6.505 -19.565 6.505 -13 6 C-12.67 5.01 -12.34 4.02 -12 3 C-11.34 3 -10.68 3 -10 3 C-10 3.99 -10 4.98 -10 6 C-8.68 6 -7.36 6 -6 6 C-5.34 5.34 -4.68 4.68 -4 4 C-3.67 4.66 -3.34 5.32 -3 6 C-2.01 6.33 -1.02 6.66 0 7 C0 4.69 0 2.38 0 0 Z"/>
<path transform="translate(227,260)" fill="#7E8DA1" d="M0 0 C1.1055189 0.93590504 2.20935453 1.87379858 3.3125 2.8125 C3.92738281 3.33457031 4.54226562 3.85664063 5.17578125 4.39453125 C9.83516281 8.49518612 9.83516281 8.49518612 11 12.0625 C11.76334112 15.28198892 11.76334112 15.28198892 15 17 C14.67 17.66 14.34 18.32 14 19 C8.55072464 20.27536232 8.55072464 20.27536232 6 19 C6 18.34 6 17.68 6 17 C5.34 17 4.68 17 4 17 C4 16.34 4 15.68 4 15 C3.34 15 2.68 15 2 15 C2 14.34 2 13.68 2 13 C1.34 13 0.68 13 0 13 C0 12.34 0 11.68 0 11 C-0.66 11 -1.32 11 -2 11 C-2.33 10.01 -2.66 9.02 -3 8 C-1.68 8 -0.36 8 1 8 C0.67 5.36 0.34 2.72 0 0 Z"/>
<path transform="translate(226,278)" fill="#8998A9" d="M0 0 C0.66 0 1.32 0 2 0 C2 0.66 2 1.32 2 2 C2.56203125 2.22429687 3.1240625 2.44859375 3.703125 2.6796875 C6.67275417 4.38671923 8.50344167 6.54806544 10.75 9.125 C11.94882813 10.49011719 11.94882813 10.49011719 13.171875 11.8828125 C14.07679688 12.93082031 14.07679688 12.93082031 15 14 C14.34 14.66 13.68 15.32 13 16 C12.34 16 11.68 16 11 16 C11 17.65 11 19.3 11 21 C9.68 21 8.36 21 7 21 C7 20.34 7 19.68 7 19 C6.34 19 5.68 19 5 19 C5 18.34 5 17.68 5 17 C4.34 17 3.68 17 3 17 C3 16.34 3 15.68 3 15 C2.34 14.67 1.68 14.34 1 14 C1.99 13.34 2.98 12.68 4 12 C2.94124926 8.59687262 1.99097846 5.98646769 0 3 C0 2.01 0 1.02 0 0 Z"/>
<path transform="translate(192,212)" fill="#99A4AE" d="M0 0 C2 2.1875 2 2.1875 3 5 C2.875 7.6875 2.875 7.6875 2 10 C-1.46923881 12.31282587 -2.92205575 12.42478586 -7 12 C-8.875 10.875 -8.875 10.875 -10 9 C-10.38976435 5.88188517 -10.50422245 3.88980433 -8.9375 1.125 C-5.82393204 -0.68287817 -3.50689795 -0.50098542 0 0 Z"/>
<path transform="translate(307,247)" fill="#9AA2AF" d="M0 0 C1.8125 1.1875 1.8125 1.1875 3 3 C3.1875 6.1875 3.1875 6.1875 3 9 C2.34 9 1.68 9 1 9 C1 9.66 1 10.32 1 11 C-2.13977726 11.98678714 -3.67118829 12.11691083 -6.8125 11 C-9 9 -9 9 -9.5625 5.5 C-9 2 -9 2 -7.3125 0 C-4.35711914 -1.27800253 -3.01001617 -1.08051862 0 0 Z"/>
<path transform="translate(281,158)" fill="#94A0AF" d="M0 0 C0.33 0 0.66 0 1 0 C1 3.63 1 7.26 1 11 C1.66 10.67 2.32 10.34 3 10 C3.66 10.33 4.32 10.66 5 11 C4.835 10.236875 4.67 9.47375 4.5 8.6875 C4 6 4 6 4 3 C4.99 3.66 5.98 4.32 7 5 C7.29296875 7.1640625 7.29296875 7.1640625 7.1875 9.625 C7.16042969 10.44226563 7.13335937 11.25953125 7.10546875 12.1015625 C7.07066406 12.72804687 7.03585937 13.35453125 7 14 C9.475 14.99 9.475 14.99 12 16 C12 16.33 12 16.66 12 17 C10.453125 17.3403125 10.453125 17.3403125 8.875 17.6875 C4.65352339 18.8606081 2.24985201 21.12803776 -1 24 C-1.66 24 -2.32 24 -3 24 C-3 23.34 -3 22.68 -3 22 C-2.01 22 -1.02 22 0 22 C-0.34227572 19.02934491 -0.34227572 19.02934491 -1 16 C-1.66 15.67 -2.32 15.34 -3 15 C-2.835 14.29875 -2.67 13.5975 -2.5 12.875 C-1.90260277 9.9832846 -1.90260277 9.9832846 -2.0625 6.9375 C-1.99933439 3.96871644 -1.53406269 2.49285187 0 0 Z"/>
<path transform="translate(259,191)" fill="#95A0B0" d="M0 0 C0.66 1.32 1.32 2.64 2 4 C2.66 3.67 3.32 3.34 4 3 C4 3.66 4 4.32 4 5 C5.32 5.33 6.64 5.66 8 6 C7.28972656 6.69867188 6.57945312 7.39734375 5.84765625 8.1171875 C4.92855469 9.02726563 4.00945312 9.93734375 3.0625 10.875 C2.14597656 11.77992188 1.22945313 12.68484375 0.28515625 13.6171875 C-2.01187627 15.77682255 -2.01187627 15.77682255 -3 18 C-3.66 18 -4.32 18 -5 18 C-5 18.66 -5 19.32 -5 20 C-5.99 20.33 -6.98 20.66 -8 21 C-6.89911145 15.86252012 -5.43988346 12.9599223 -1 10 C-1.66 9.34 -2.32 8.68 -3 8 C-3 8.99 -3 9.98 -3 11 C-5.97 10.505 -5.97 10.505 -9 10 C-8.04882866 8.8274869 -7.08882991 7.66212985 -6.125 6.5 C-5.32449219 5.52546875 -5.32449219 5.52546875 -4.5078125 4.53125 C-4.01023438 4.0259375 -3.51265625 3.520625 -3 3 C-2.34 3 -1.68 3 -1 3 C-0.67 2.01 -0.34 1.02 0 0 Z"/>
<path transform="translate(233,197)" fill="#919EAE" d="M0 0 C0.99 0.33 1.98 0.66 3 1 C2.67 2.65 2.34 4.3 2 6 C2.66 6.33 3.32 6.66 4 7 C4 6.34 4 5.68 4 5 C7.465 4.505 7.465 4.505 11 4 C6.88380164 8.91935902 2.59589638 13.52647956 -2 18 C-3 16 -4 14 -5 12 C-4.34 12 -3.68 12 -3 12 C-3 11.01 -3 10.02 -3 9 C-2.34 9 -1.68 9 -1 9 C-1.66 8.01 -2.32 7.02 -3 6 C-3.33 5.34 -3.66 4.68 -4 4 C-3.34 4 -2.68 4 -2 4 C-2 3.34 -2 2.68 -2 2 C-1.34 2 -0.68 2 0 2 C0 1.34 0 0.68 0 0 Z"/>
<path transform="translate(310,188)" fill="#7F8FA2" d="M0 0 C2.375 1.625 2.375 1.625 4 4 C3.85205998 7.6985004 3.64194427 9.35805573 1 12 C-1.5 11.875 -1.5 11.875 -4 11 C-5.3125 8.9375 -5.3125 8.9375 -6 7 C-6.66 7 -7.32 7 -8 7 C-8.1875 4.625 -8.1875 4.625 -8 2 C-4.75173326 -0.16551116 -3.76905843 -0.55156953 0 0 Z"/>
<path transform="translate(297,160)" fill="#818E9F" d="M0 0 C0.66 0 1.32 0 2 0 C2.61593211 8.96523405 2.61593211 8.96523405 0.4375 12.625 C-2.82242096 14.46392977 -5.32112194 14.28299062 -9 14 C-9.33 12.02 -9.66 10.04 -10 8 C-9.195625 7.7525 -8.39125 7.505 -7.5625 7.25 C-4.828919 6.27761141 -4.828919 6.27761141 -4.1875 3.875 C-4.125625 3.25625 -4.06375 2.6375 -4 2 C-2.68 2 -1.36 2 0 2 C0 1.34 0 0.68 0 0 Z"/>
<path transform="translate(271,283)" fill="#A3ACB9" d="M0 0 C0 2.66666667 0 5.33333333 0 8 C-1.32 7.34 -2.64 6.68 -4 6 C-3.06012171 8.15579366 -3.06012171 8.15579366 -1 9.9375 C1 12 1 12 2 15 C3.98 15 5.96 15 8 15 C8 16.98 8 18.96 8 21 C8.99 21 9.98 21 11 21 C10.34 22.32 9.68 23.64 9 25 C3.39 19.39 -2.22 13.78 -8 8 C-4 0 -4 0 0 0 Z"/>
<path transform="translate(256,198)" fill="#7C8B9F" d="M0 0 C0.99 1.32 1.98 2.64 3 4 C1.35 4.66 -0.3 5.32 -2 6 C-1.67 6.99 -1.34 7.98 -1 9 C-1.99 9.66 -2.98 10.32 -4 11 C-4.33 11.99 -4.66 12.98 -5 14 C-7.4375 15.25 -7.4375 15.25 -10 16 C-10.66 15.67 -11.32 15.34 -12 15 C-12 15.66 -12 16.32 -12 17 C-12.66 17 -13.32 17 -14 17 C-13 15 -12 13 -11 11 C-10.896875 10.38125 -10.79375 9.7625 -10.6875 9.125 C-9.74009808 6.19666678 -8.41679242 4.87972744 -6 3 C-3.25 2.75 -3.25 2.75 -1 3 C-0.67 2.01 -0.34 1.02 0 0 Z"/>
<path transform="translate(294,307)" fill="#A7B1C0" d="M0 0 C5.61 0 11.22 0 17 0 C17 0.33 17 0.66 17 1 C12.05 1.33 7.1 1.66 2 2 C2.99 3.485 2.99 3.485 4 5 C3.38125 5.5775 2.7625 6.155 2.125 6.75 C-0.28110212 9.08052993 -0.28110212 9.08052993 -2 13 C-5.63 9.37 -9.26 5.74 -13 2 C-10.13411489 0.56705745 -8.09628564 1.43129447 -5 2 C-4.01 2 -3.02 2 -2 2 C-2 3.32 -2 4.64 -2 6 C-1.34 6 -0.68 6 0 6 C0 4.02 0 2.04 0 0 Z"/>
<path transform="translate(171,318)" fill="#7B8EA3" d="M0 0 C2.22117432 0.16679535 2.22117432 0.16679535 4.5625 0 C6.94140625 -0.125 6.94140625 -0.125 9 0 C9.66 0.66 10.32 1.32 11 2 C9.25894589 4.42233615 7.87470667 5.81559356 4.90625 6.44140625 C0.44474694 6.67191724 -1.43512518 6.43806619 -5.0625 3.625 C-7 1 -7 1 -7 -1 C-3.51418144 -2.2020064 -3.32007656 -2.21338437 0 0 Z"/>
<path transform="translate(237,270)" fill="#9DA8B5" d="M0 0 C0.99 0.66 1.98 1.32 3 2 C3 2.66 3 3.32 3 4 C3.66 4 4.32 4 5 4 C5 4.66 5 5.32 5 6 C5.66 6 6.32 6 7 6 C7 6.66 7 7.32 7 8 C7.556875 8.20625 8.11375 8.4125 8.6875 8.625 C11.92501302 10.55000774 13.68231141 13.03850902 16 16 C10.125 15.125 10.125 15.125 9 14 C8.34 14 7.68 14 7 14 C6.67 13.34 6.34 12.68 6 12 C3.94729537 13.84188612 3.94729537 13.84188612 3 16 C1.35 14.02 -0.3 12.04 -2 10 C0.31 9.01 2.62 8.02 5 7 C4.360625 6.773125 3.72125 6.54625 3.0625 6.3125 C1 5 1 5 0.25 2.375 C0.1675 1.59125 0.085 0.8075 0 0 Z"/>
<path transform="translate(168,305)" fill="#95A1AF" d="M0 0 C0.99 1.32 1.98 2.64 3 4 C2.67 4.66 2.34 5.32 2 6 C2.66 6.33 3.32 6.66 4 7 C3.34 7 2.68 7 2 7 C2 7.99 2 8.98 2 10 C4.31 10 6.62 10 9 10 C9 10.66 9 11.32 9 12 C7.02 12 5.04 12 3 12 C2.67 12.66 2.34 13.32 2 14 C1.34 13.34 0.68 12.68 0 12 C-2.58354218 11.83312552 -2.58354218 11.83312552 -5 12 C-4.50769231 4.61538462 -4.50769231 4.61538462 -1.9375 1.5 C-1.298125 1.005 -0.65875 0.51 0 0 Z"/>
<path transform="translate(322,199)" fill="#A0AAB7" d="M0 0 C-1.32 0.33 -2.64 0.66 -4 1 C-4 1.66 -4 2.32 -4 3 C-4.66 3.66 -5.32 4.32 -6 5 C-5.34 5.66 -4.68 6.32 -4 7 C-4.66 7 -5.32 7 -6 7 C-6.33 8.65 -6.66 10.3 -7 12 C-8.74627478 9.38058783 -9.38722388 7.96175123 -10 5 C-13.12197478 6.3089572 -13.12197478 6.3089572 -15 9 C-15.33 8.01 -15.66 7.02 -16 6 C-22.93 5.505 -22.93 5.505 -30 5 C-30 4.67 -30 4.34 -30 4 C-24.39 4 -18.78 4 -13 4 C-13 3.34 -13 2.68 -13 2 C-9.35704459 -2.27651288 -4.9670642 -0.88091096 0 0 Z"/>
<path transform="translate(260,209)" fill="#96A2B0" d="M0 0 C1.0625 1.8125 1.0625 1.8125 2 4 C1.67 4.99 1.34 5.98 1 7 C3.475 7.99 3.475 7.99 6 9 C4.02 11.31 2.04 13.62 0 16 C-0.66 14.68 -1.32 13.36 -2 12 C-2.66 11.01 -3.32 10.02 -4 9 C-5.65 10.32 -7.3 11.64 -9 13 C-9.66 12.67 -10.32 12.34 -11 12 C-10.28972656 11.30132812 -9.57945312 10.60265625 -8.84765625 9.8828125 C-7.92855469 8.97273437 -7.00945312 8.06265625 -6.0625 7.125 C-4.68771484 5.76761719 -4.68771484 5.76761719 -3.28515625 4.3828125 C-0.98812373 2.22317745 -0.98812373 2.22317745 0 0 Z"/>
<path transform="translate(292,333)" fill="#94A0AD" d="M0 0 C0.33 0.66 0.66 1.32 1 2 C2.65 1.34 4.3 0.68 6 0 C6.33 1.65 6.66 3.3 7 5 C6.34 5 5.68 5 5 5 C5 5.66 5 6.32 5 7 C1.79619983 9.13586678 0.98060033 9.23132175 -2.6875 9.125 C-3.89986328 9.09792969 -3.89986328 9.09792969 -5.13671875 9.0703125 C-6.05904297 9.03550781 -6.05904297 9.03550781 -7 9 C-5.125 3.25 -5.125 3.25 -4 1 C-1.9375 0.375 -1.9375 0.375 0 0 Z"/>
<path transform="translate(224,227)" fill="#A0A9B5" d="M0 0 C1.43088528 2.86177057 0.59991697 4.93375773 0 8 C3.16666667 6.16666667 3.16666667 6.16666667 5 3 C5.99 3.99 6.98 4.98 8 6 C6.02 6.99 6.02 6.99 4 8 C4 8.66 4 9.32 4 10 C3.34 10 2.68 10 2 10 C2 10.66 2 11.32 2 12 C1.34 12 0.68 12 0 12 C0 12.66 0 13.32 0 14 C-0.66 14 -1.32 14 -2 14 C-2.28875 14.639375 -2.5775 15.27875 -2.875 15.9375 C-4 18 -4 18 -6 19 C-5.35455571 15.51460083 -3.89865603 12.97180943 -2 10 C-3.32 9.34 -4.64 8.68 -6 8 C-6 7.34 -6 6.68 -6 6 C-5.34 6 -4.68 6 -4 6 C-4 5.34 -4 4.68 -4 4 C-3.34 4 -2.68 4 -2 4 C-1.34 2.68 -0.68 1.36 0 0 Z"/>
<path transform="translate(318,200)" fill="#97A3B3" d="M0 0 C2.84326464 -0.23053497 4.46145349 -0.35903101 6.875 1.25 C8 3 8 3 7.9375 4.9375 C6.75310292 7.54317359 5.10921555 9.09490208 3 11 C2.34 10.67 1.68 10.34 1 10 C0.855625 9.38125 0.71125 8.7625 0.5625 8.125 C-0.09717457 5.63289608 -1.08288629 4.6670554 -3 3 C-2.01 2.67 -1.02 2.34 0 2 C0 1.34 0 0.68 0 0 Z"/>
<path transform="translate(169,175)" fill="#9FAEB8" d="M0 0 C0.66 0.33 1.32 0.66 2 1 C2 1.99 2 2.98 2 4 C3.98 4.99 5.96 5.98 8 7 C7.67 7.99 7.34 8.98 7 10 C7 9.34 7 8.68 7 8 C5.35 8 3.7 8 2 8 C1.67 8.66 1.34 9.32 1 10 C-0.98 9.34 -2.96 8.68 -5 8 C-5.33 9.32 -5.66 10.64 -6 12 C-5.63076923 4.61538462 -5.63076923 4.61538462 -2.4375 1.5 C-1.633125 1.005 -0.82875 0.51 0 0 Z"/>
<path transform="translate(227,260)" fill="#96A1B0" d="M0 0 C7.48291572 6.15034169 7.48291572 6.15034169 10 10 C8.02 10 6.04 10 4 10 C3.67 10.66 3.34 11.32 3 12 C2.01 12.33 1.02 12.66 0 13 C0 12.34 0 11.68 0 11 C-0.66 11 -1.32 11 -2 11 C-2.33 10.01 -2.66 9.02 -3 8 C-1.68 8 -0.36 8 1 8 C0.67 5.36 0.34 2.72 0 0 Z"/>
<path transform="translate(335,177)" fill="#808FA2" d="M0 0 C0.99 0 1.98 0 3 0 C3.59405941 7.00990099 3.59405941 7.00990099 1.125 11.125 C-3.03408713 13.62045228 -5.31659963 12.89796961 -9.890625 11.80859375 C-12 11 -12 11 -13 9 C-12.39671875 8.93941406 -11.7934375 8.87882813 -11.171875 8.81640625 C-10.37265625 8.73261719 -9.5734375 8.64882812 -8.75 8.5625 C-7.96109375 8.48128906 -7.1721875 8.40007812 -6.359375 8.31640625 C-4.17635361 8.02365007 -2.1226818 7.57935581 0 7 C0 4.69 0 2.38 0 0 Z"/>
<path transform="translate(276,173)" fill="#808FA3" d="M0 0 C1.65 0.33 3.3 0.66 5 1 C6 4 6 4 5 7 C4.01 7 3.02 7 2 7 C2.66 7.33 3.32 7.66 4 8 C4 8.66 4 9.32 4 10 C1.69 10 -0.62 10 -3 10 C-2.67 7.36 -2.34 4.72 -2 2 C-1.34 2 -0.68 2 0 2 C0 1.34 0 0.68 0 0 Z"/>
<path transform="translate(229,206)" fill="#8192A5" d="M0 0 C0.33 0.99 0.66 1.98 1 3 C0.34 2.67 -0.32 2.34 -1 2 C-0.67 1.34 -0.34 0.68 0 0 Z M-3 3 C-1.68 3.66 -0.36 4.32 1 5 C1.36795695 8.2828659 1.3231932 9.58663012 -0.75 12.23828125 C-1.4925 12.92277344 -2.235 13.60726562 -3 14.3125 C-3.7425 15.00988281 -4.485 15.70726562 -5.25 16.42578125 C-5.8275 16.94527344 -6.405 17.46476563 -7 18 C-7.33 17.01 -7.66 16.02 -8 15 C-7.01 14.67 -6.02 14.34 -5 14 C-5 12.68 -5 11.36 -5 10 C-5.66 9.34 -6.32 8.68 -7 8 C-6.01 8 -5.02 8 -4 8 C-3.67 6.35 -3.34 4.7 -3 3 Z"/>
<path transform="translate(276.18359375,210.83203125)" fill="#8C97A1" d="M0 0 C0.81130875 -0.0033284 1.62261749 -0.0066568 2.45851135 -0.01008606 C4.17586703 -0.01515255 5.89323256 -0.01749447 7.6105957 -0.01733398 C10.23991089 -0.01951962 12.86880601 -0.03767561 15.49804688 -0.05664062 C17.16536315 -0.05957475 18.83268141 -0.06155942 20.5 -0.0625 C21.6813578 -0.07327827 21.6813578 -0.07327827 22.88658142 -0.08427429 C26.72945315 -0.06816842 28.54241202 -0.01469407 31.81640625 2.16796875 C30.72175049 2.17731445 29.62709473 2.18666016 28.49926758 2.19628906 C24.42675514 2.23624812 20.35499345 2.30202277 16.28295898 2.37548828 C14.52264064 2.40366374 12.76219658 2.42489534 11.00170898 2.43896484 C8.46663214 2.46044248 5.93306115 2.50711467 3.3984375 2.55859375 C2.22315239 2.56043671 2.22315239 2.56043671 1.02412415 2.56231689 C-3.95759725 2.69499385 -6.51111317 3.49868441 -10.18359375 7.16796875 C-10.18359375 5.18796875 -10.18359375 3.20796875 -10.18359375 1.16796875 C-6.98520457 -0.43122584 -3.51306017 0.00495116 0 0 Z"/>
<path transform="translate(219,234)" fill="#7A8AA0" d="M0 0 C2 1.3125 2 1.3125 4 3 C4 3.99 4 4.98 4 6 C3.01 6 2.02 6 1 6 C0.34 7.98 -0.32 9.96 -1 12 C-1.99 12 -2.98 12 -4 12 C-4.66 10.02 -5.32 8.04 -6 6 C-5.01 5.34 -4.02 4.68 -3 4 C-2.67 3.01 -2.34 2.02 -2 1 C-1.34 0.67 -0.68 0.34 0 0 Z"/>
<path transform="translate(284,157)" fill="#7D8B9E" d="M0 0 C2.35981813 0.93578995 4.69631264 1.93347808 7 3 C4 5 4 5 1 6 C1.33 6 1.66 6 2 6 C2 7.98 2 9.96 2 12 C0.35 12.33 -1.3 12.66 -3 13 C-3.15808824 4.9375 -3.15808824 4.9375 -2 1 C-1.34 0.67 -0.68 0.34 0 0 Z"/>
<path transform="translate(270,189)" fill="#7F8EA1" d="M0 0 C-0.66 1.32 -1.32 2.64 -2 4 C-2.66 4 -3.32 4 -4 4 C-3.67 4.99 -3.34 5.98 -3 7 C-5.875 7.1875 -5.875 7.1875 -9 7 C-9.66 6.01 -10.32 5.02 -11 4 C-10.67 3.01 -10.34 2.02 -10 1 C-9.34 1 -8.68 1 -8 1 C-8 0.34 -8 -0.32 -8 -1 C-3.375 -2.25 -3.375 -2.25 0 0 Z"/>
<path transform="translate(192,214)" fill="#7D8C9E" d="M0 0 C0.9765625 6.0546875 0.9765625 6.0546875 1 8 C0.34 8.66 -0.32 9.32 -1 10 C-3.625 9.625 -3.625 9.625 -6 9 C-5.67 8.01 -5.34 7.02 -5 6 C-4.34 6 -3.68 6 -3 6 C-3 5.34 -3 4.68 -3 4 C-4.65 4 -6.3 4 -8 4 C-7.67 3.01 -7.34 2.02 -7 1 C-4 0 -4 0 0 0 Z"/>
<path transform="translate(249,189)" fill="#808FA3" d="M0 0 C0 0.66 0 1.32 0 2 C0.66 2 1.32 2 2 2 C1.67 3.65 1.34 5.3 1 7 C-1.3125 7.625 -1.3125 7.625 -4 8 C-4.99 7.34 -5.98 6.68 -7 6 C-6.67 4.35 -6.34 2.7 -6 1 C-3 0 -3 0 0 0 Z"/>
<path transform="translate(224,215)" fill="#778A9F" d="M0 0 C0.33 0.99 0.66 1.98 1 3 C0.54625 3.433125 0.0925 3.86625 -0.375 4.3125 C-2.20024334 6.10798342 -2.20024334 6.10798342 -4 9 C-4.99 8.67 -5.98 8.34 -7 8 C-7 7.01 -7 6.02 -7 5 C-7.66 4.34 -8.32 3.68 -9 3 C-7.14340032 -0.71319936 -3.69365381 -0.09982848 0 0 Z"/>
<path transform="translate(283,318)" fill="#A3AEB9" d="M0 0 C0.7734375 0.7115625 0.7734375 0.7115625 1.5625 1.4375 C4.66782675 3.42809407 7.36632504 3.65060818 11 4 C11 4.33 11 4.66 11 5 C8.69 5 6.38 5 4 5 C4 5.66 4 6.32 4 7 C3.34 7 2.68 7 2 7 C1.731875 7.639375 1.46375 8.27875 1.1875 8.9375 C0 11 0 11 -3 12 C-3.144375 11.38125 -3.28875 10.7625 -3.4375 10.125 C-3.93152225 7.96741678 -3.93152225 7.96741678 -5 6 C-3.35 5.67 -1.7 5.34 0 5 C-0.33 4.34 -0.66 3.68 -1 3 C-0.67 2.01 -0.34 1.02 0 0 Z"/>
<path transform="translate(278,316)" fill="#7E90A1" d="M0 0 C1.65 0.33 3.3 0.66 5 1 C4.979375 1.78375 4.95875 2.5675 4.9375 3.375 C4.81315937 5.98114961 4.81315937 5.98114961 6 8 C3.39417629 8.93065133 2.35801776 9.14917407 -0.25 8.0625 C-0.8275 7.711875 -1.405 7.36125 -2 7 C-1.125 2.25 -1.125 2.25 0 0 Z"/>
<path transform="translate(256,174)" fill="#A2ABB7" d="M0 0 C3.0390625 -0.29296875 3.0390625 -0.29296875 6.625 -0.1875 C7.81351562 -0.16042969 9.00203125 -0.13335937 10.2265625 -0.10546875 C11.14179688 -0.07066406 12.05703125 -0.03585938 13 0 C11.1144852 4.28359673 8.64034299 6.15103592 5 9 C4.79913557 5.28400809 4.8480563 4.22791555 7 1 C4.03 1.66 1.06 2.32 -2 3 C-1.34 2.01 -0.68 1.02 0 0 Z"/>
<path transform="translate(221,276)" fill="#7D8EA2" d="M0 0 C2.375 0.625 2.375 0.625 5 2 C6.1875 5.0625 6.1875 5.0625 7 8 C7.66 8.33 8.32 8.66 9 9 C9.625 12.0625 9.625 12.0625 10 15 C8.68 15.33 7.36 15.66 6 16 C3.875 9.375 3.875 9.375 5 6 C4.34 6 3.68 6 3 6 C0 2.53846154 0 2.53846154 0 0 Z"/>
<path transform="translate(203,248)" fill="#9BA8B5" d="M0 0 C1.32 0 2.64 0 4 0 C3.875 1.8125 3.875 1.8125 3 4 C-2.03571429 7 -2.03571429 7 -5 7 C-5.103125 7.763125 -5.20625 8.52625 -5.3125 9.3125 C-6.04364039 12.17059424 -6.76951913 13.15742885 -9 15 C-9.75 13.3125 -9.75 13.3125 -10 11 C-8.1875 8.25 -8.1875 8.25 -6 6 C-5.34 6 -4.68 6 -4 6 C-4 5.34 -4 4.68 -4 4 C-3.34 4 -2.68 4 -2 4 C-2 3.34 -2 2.68 -2 2 C-1.34 2 -0.68 2 0 2 C0 1.34 0 0.68 0 0 Z"/>
<path transform="translate(261,209)" fill="#788B9F" d="M0 0 C2.64 0 5.28 0 8 0 C7.67 0.99 7.34 1.98 7 3 C6.34 3 5.68 3 5 3 C5 4.98 5 6.96 5 9 C2.03 8.505 2.03 8.505 -1 8 C-0.67 5.36 -0.34 2.72 0 0 Z"/>
<path transform="translate(328,301)" fill="#959FAD" d="M0 0 C1.32 0.33 2.64 0.66 4 1 C3.54625 1.4125 3.0925 1.825 2.625 2.25 C0.90498625 3.89489923 0.90498625 3.89489923 0.1875 6 C-1.5366491 8.90383006 -4.00306327 9.59717855 -7 11 C-7.33 11.66 -7.66 12.32 -8 13 C-8.66 13 -9.32 13 -10 13 C-8.79618552 10.50638429 -7.54571278 8.31856917 -6 6 C-5.34 6 -4.68 6 -4 6 C-4 5.34 -4 4.68 -4 4 C-3.34 4 -2.68 4 -2 4 C-2 3.34 -2 2.68 -2 2 C-1.34 2 -0.68 2 0 2 C0 1.34 0 0.68 0 0 Z"/>
<path transform="translate(313,211)" fill="#93A1B2" d="M0 0 C1.98 0 3.96 0 6 0 C5.01 0.495 5.01 0.495 4 1 C3.34444881 3.52733235 3.34444881 3.52733235 3 6 C4.32 6.66 5.64 7.32 7 8 C0.375 8.25 0.375 8.25 -3 6 C-2.67 4.68 -2.34 3.36 -2 2 C-1.34 2 -0.68 2 0 2 C0 1.34 0 0.68 0 0 Z"/>
<path transform="translate(252.5625,267.9375)" fill="#7F8CA4" d="M0 0 C1.2065625 0.0309375 1.2065625 0.0309375 2.4375 0.0625 C1.95171457 3.18540635 1.4388988 6.05830359 0.4375 9.0625 C-0.8825 8.7325 -2.2025 8.4025 -3.5625 8.0625 C-3.60491723 5.72955225 -3.60342937 3.39547433 -3.5625 1.0625 C-2.5625 0.0625 -2.5625 0.0625 0 0 Z"/>
<path transform="translate(213,258)" fill="#A6B1BA" d="M0 0 C0 3.55151105 -0.54465213 3.93432729 -2.875 6.4375 C-4.62251125 8.32430562 -5.91634889 9.8207013 -7.0078125 12.16015625 C-8 14 -8 14 -11 15 C-11.66 14.34 -12.32 13.68 -13 13 C-8.71 8.71 -4.42 4.42 0 0 Z"/>
<path transform="translate(197,310)" fill="#B6BEC7" d="M0 0 C2.49388574 4.98777148 1.88836125 6.66983248 1 12 C2.65 12 4.3 12 6 12 C6.309375 11.05125 6.61875 10.1025 6.9375 9.125 C8 6 8 6 9 4 C10 5 10 5 10.09765625 6.84765625 C10.04882812 9.92382812 10.04882812 9.92382812 10 13 C6.7 13 3.4 13 0 13 C0 8.71 0 4.42 0 0 Z"/>
<path transform="translate(332,173)" fill="#7F8EA1" d="M0 0 C1.65 0.99 3.3 1.98 5 3 C4.67 3.66 4.34 4.32 4 5 C3.960008 6.99960012 3.95653201 9.00047242 4 11 C2.33333333 11 0.66666667 11 -1 11 C-1.125 6.25 -1.125 6.25 0 4 C0 2.68 0 1.36 0 0 Z"/>
<path transform="translate(285,330)" fill="#7A899B" d="M0 0 C1.76100758 3.40461465 3 6.09349661 3 10 C1.68 10.33 0.36 10.66 -1 11 C-2.625 8.25 -2.625 8.25 -4 5 C-3.3125 2.6875 -3.3125 2.6875 -2 1 C-1.34 0.67 -0.68 0.34 0 0 Z"/>
<path transform="translate(302,246)" fill="#9DA8B6" d="M0 0 C2.62655933 0.35494045 4.57968261 0.72461964 6.8125 2.1875 C8.51995571 4.79361661 8.20267097 6.9599355 8 10 C4.25029042 8.75009681 3.23456639 7.20287849 1 4 C0.25 1.6875 0.25 1.6875 0 0 Z"/>
<path transform="translate(310,188)" fill="#A4AEB9" d="M0 0 C2.375 1.625 2.375 1.625 4 4 C3.75 7.25 3.75 7.25 3 10 C2.67 8.68 2.34 7.36 2 6 C1.01 6 0.02 6 -1 6 C-1.66 4.68 -2.32 3.36 -3 2 C-4.65 2.66 -6.3 3.32 -8 4 C-8 3.34 -8 2.68 -8 2 C-4.75173326 -0.16551116 -3.76905843 -0.55156953 0 0 Z"/>
<path transform="translate(270,307)" fill="#8293A5" d="M0 0 C1.98 0.495 1.98 0.495 4 1 C4.33 3.64 4.66 6.28 5 9 C3.35 9.33 1.7 9.66 0 10 C-1.125 3.375 -1.125 3.375 0 0 Z"/>
<path transform="translate(178,305)" fill="#9AA5B4" d="M0 0 C1.65 1.32 3.3 2.64 5 4 C3.62308038 6.75383923 1.63279958 7.51483101 -1 9 C-2.65 7.68 -4.3 6.36 -6 5 C-3 3 -3 3 0 3 C0 2.01 0 1.02 0 0 Z"/>
<path transform="translate(269,283)" fill="#97A4B3" d="M0 0 C0.66 0 1.32 0 2 0 C2 2.66666667 2 5.33333333 2 8 C0.68 7.34 -0.64 6.68 -2 6 C-2 7.65 -2 9.3 -2 11 C-3.32 9.68 -4.64 8.36 -6 7 C-5.195625 6.21625 -4.39125 5.4325 -3.5625 4.625 C-1.01309583 2.28017144 -1.01309583 2.28017144 0 0 Z"/>
<path transform="translate(326,206)" fill="#A1ABB5" d="M0 0 C0.33 0 0.66 0 1 0 C0.50769231 7.38461538 0.50769231 7.38461538 -2.0625 10.5 C-2.701875 10.995 -3.34125 11.49 -4 12 C-5.32 11.34 -6.64 10.68 -8 10 C-6.71034824 8.62437146 -5.37310707 7.29233607 -4 6 C-3.34 6 -2.68 6 -2 6 C-2 5.34 -2 4.68 -2 4 C-1.34 4 -0.68 4 0 4 C0 2.68 0 1.36 0 0 Z"/>
<path transform="translate(258,183)" fill="#99A3AF" d="M0 0 C0.99 0.33 1.98 0.66 3 1 C1.71937515 2.7074998 0.38232443 4.37373596 -1 6 C-1.66 6 -2.32 6 -3 6 C-3.33 6.99 -3.66 7.98 -4 9 C-4.66 9 -5.32 9 -6 9 C-6.33 9.66 -6.66 10.32 -7 11 C-7 10.01 -7 9.02 -7 8 C-7.66 7.67 -8.32 7.34 -9 7 C-8.34 6.67 -7.68 6.34 -7 6 C-6.34 6.33 -5.68 6.66 -5 7 C-4.731875 6.21625 -4.46375 5.4325 -4.1875 4.625 C-3 2 -3 2 0 0 Z"/>
<path transform="translate(297,160)" fill="#7D8C9C" d="M0 0 C0.33 0 0.66 0 1 0 C1 2.64 1 5.28 1 8 C-0.98 8.66 -2.96 9.32 -5 10 C-4.67 7.36 -4.34 4.72 -4 2 C-2.68 2 -1.36 2 0 2 C0 1.34 0 0.68 0 0 Z"/>
<path transform="translate(259,311)" fill="#A0A7B4" d="M0 0 C4.32239956 3.34003602 7.17477391 6.32751069 10 11 C7 11 7 11 4.3125 8.625 C2 6 2 6 2 4 C1.01 3.67 0.02 3.34 -1 3 C-0.67 2.01 -0.34 1.02 0 0 Z"/>
<path transform="translate(243,281)" fill="#8A96A9" d="M0 0 C0.33 0.99 0.66 1.98 1 3 C1.66 3 2.32 3 3 3 C3 2.34 3 1.68 3 1 C3.66 1.33 4.32 1.66 5 2 C4.34 3.98 3.68 5.96 3 8 C1.125 7.8125 1.125 7.8125 -1 7 C-2.25 4.4375 -2.25 4.4375 -3 2 C-2.01 1.34 -1.02 0.68 0 0 Z"/>
<path transform="translate(315,202)" fill="#C1C8D1" d="M0 0 C-4.75 4 -4.75 4 -7 4 C-7.33 4.66 -7.66 5.32 -8 6 C-8.33 5.01 -8.66 4.02 -9 3 C-15.93 2.505 -15.93 2.505 -23 2 C-23 1.67 -23 1.34 -23 1 C-20.10425766 0.83160792 -17.20842326 0.66522615 -14.3125 0.5 C-13.08756836 0.42845703 -13.08756836 0.42845703 -11.83789062 0.35546875 C-7.88646942 0.13150156 -3.95981243 -0.06451833 0 0 Z"/>
<path transform="translate(310,291)" fill="#7B8995" d="M0 0 C0.99 0.33 1.98 0.66 3 1 C2.67 1.66 2.34 2.32 2 3 C-6.25 3 -14.5 3 -23 3 C-23 2.67 -23 2.34 -23 2 C-22.00818726 1.96241577 -22.00818726 1.96241577 -20.99633789 1.92407227 C-18.01817695 1.80846898 -15.0403608 1.68558246 -12.0625 1.5625 C-10.50112305 1.50352539 -10.50112305 1.50352539 -8.90820312 1.44335938 C-7.42416992 1.38051758 -7.42416992 1.38051758 -5.91015625 1.31640625 C-4.53549194 1.26141968 -4.53549194 1.26141968 -3.13305664 1.20532227 C-1.0179272 1.22996136 -1.0179272 1.22996136 0 0 Z"/>
<path transform="translate(302,250)" fill="#798BA1" d="M0 0 C2.4375 0.6875 2.4375 0.6875 5 2 C5.8125 4.625 5.8125 4.625 6 7 C3.69 6.67 1.38 6.34 -1 6 C-1.042721 4.33388095 -1.04063832 2.66617115 -1 1 C-0.67 0.67 -0.34 0.34 0 0 Z"/>
<path transform="translate(274,308)" fill="#A4AEB9" d="M0 0 C2 1.375 2 1.375 4 3 C4 3.66 4 4.32 4 5 C4.66 5 5.32 5 6 5 C6 5.66 6 6.32 6 7 C6.66 7 7.32 7 8 7 C7.67 7.66 7.34 8.32 7 9 C5.68 8.34 4.36 7.68 3 7 C2.67 7.66 2.34 8.32 2 9 C0.4375 6.1875 0.4375 6.1875 -1 3 C-0.67 2.01 -0.34 1.02 0 0 Z"/>
<path transform="translate(259,293)" fill="#9BA6B1" d="M0 0 C1.12894876 0.93274109 2.25300876 1.87140122 3.375 2.8125 C4.00148438 3.33457031 4.62796875 3.85664063 5.2734375 4.39453125 C7 6 7 6 9 9 C5.0234755 9 3.9109833 7.61988497 1 5 C-0.8125 2.75 -0.8125 2.75 -2 1 C-1.34 0.67 -0.68 0.34 0 0 Z"/>
<path transform="translate(255,268)" fill="#98A2AF" d="M0 0 C1.485 0.99 1.485 0.99 3 2 C3 2.66 3 3.32 3 4 C3.66 4 4.32 4 5 4 C5 4.66 5 5.32 5 6 C5.66 6 6.32 6 7 6 C7 6.66 7 7.32 7 8 C4.69 7.67 2.38 7.34 0 7 C-1.04449911 3.86650268 -0.93423645 3.01031744 0 0 Z"/>
<path transform="translate(226,278)" fill="#A7AFBD" d="M0 0 C0.66 0 1.32 0 2 0 C2 0.66 2 1.32 2 2 C2.8971875 2.37125 2.8971875 2.37125 3.8125 2.75 C6.28647521 4.16370012 7.43370255 5.65055383 9 8 C5.81390075 7.64598897 4.20933322 7.16972964 1.6875 5.125 C0 3 0 3 0 0 Z"/>
<path transform="translate(318,200)" fill="#7A889A" d="M0 0 C1.32 0 2.64 0 4 0 C4 1.65 4 3.3 4 5 C2.1875 5.6875 2.1875 5.6875 0 6 C-1.75 4.5625 -1.75 4.5625 -3 3 C-2.01 2.67 -1.02 2.34 0 2 C0 1.34 0 0.68 0 0 Z"/>
<path transform="translate(164,179)" fill="#8D9EB0" d="M0 0 C2.97 0.495 2.97 0.495 6 1 C6 2.32 6 3.64 6 5 C3.03 4.505 3.03 4.505 0 4 C-0.33 5.32 -0.66 6.64 -1 8 C-0.67 5.36 -0.34 2.72 0 0 Z"/>
<path transform="translate(239,232)" fill="#78899F" d="M0 0 C0.66 0.33 1.32 0.66 2 1 C1.34 2.32 0.68 3.64 0 5 C0.99 5.66 1.98 6.32 3 7 C2.01 8.485 2.01 8.485 1 10 C-0.32 9.67 -1.64 9.34 -3 9 C-1.125 2.25 -1.125 2.25 0 0 Z"/>
<path transform="translate(244,201)" fill="#A6AFBA" d="M0 0 C-1.98 2.31 -3.96 4.62 -6 7 C-6.66 5.68 -7.32 4.36 -8 3 C-5.53387212 -0.1151089 -3.89156016 -0.31553191 0 0 Z"/>
<path transform="translate(335,177)" fill="#A0ACB6" d="M0 0 C0.99 0 1.98 0 3 0 C3.49230769 7.38461538 3.49230769 7.38461538 1 10.5 C0.34 10.995 -0.32 11.49 -1 12 C-1.33 10.68 -1.66 9.36 -2 8 C-1.34 7.67 -0.68 7.34 0 7 C0 4.69 0 2.38 0 0 Z"/>
<path transform="translate(259,311)" fill="#7B8CA1" d="M0 0 C-0.6875 2.375 -0.6875 2.375 -2 5 C-4.625 6.3125 -4.625 6.3125 -7 7 C-6.625 4.0625 -6.625 4.0625 -6 1 C-4 0 -4 0 0 0 Z"/>
<path transform="translate(282,262)" fill="#7C8895" d="M0 0 C1.32 0.33 2.64 0.66 4 1 C3.67 1.66 3.34 2.32 3 3 C3.89163577 5.11683841 3.89163577 5.11683841 5 7 C3.35 7.33 1.7 7.66 0 8 C0 5.36 0 2.72 0 0 Z"/>
<path transform="translate(238,232)" fill="#9CA7B4" d="M0 0 C0 3.41099168 -0.49145406 6.63088314 -1 10 C-2.32 9.67 -3.64 9.34 -5 9 C-4.67 8.67 -4.34 8.34 -4 8 C-4.66 7.34 -5.32 6.68 -6 6 C-4.02 4.02 -2.04 2.04 0 0 Z"/>
<path transform="translate(251,213)" fill="#969EAD" d="M0 0 C-2.57784846 2.64752004 -4.91648098 4.94432065 -8 7 C-7.67 4.69 -7.34 2.38 -7 0 C-3.98968256 -0.93423645 -3.13349732 -1.04449911 0 0 Z"/>
<path transform="translate(252,287)" fill="#7A8CA1" d="M0 0 C0.99 0.33 1.98 0.66 3 1 C3.33 2.65 3.66 4.3 4 6 C2.35 6.33 0.7 6.66 -1 7 C-1.625 5.1875 -1.625 5.1875 -2 3 C-1.34 2.01 -0.68 1.02 0 0 Z"/>
<path transform="translate(218,269)" fill="#A3ABB7" d="M0 0 C0.66 0.33 1.32 0.66 2 1 C2 1.66 2 2.32 2 3 C2.66 3 3.32 3 4 3 C4 3.66 4 4.32 4 5 C4.66 5 5.32 5 6 5 C6 5.66 6 6.32 6 7 C6.66 7 7.32 7 8 7 C8 7.66 8 8.32 8 9 C4.6885981 8.42906864 3.24945577 7.45395174 1 5 C0.34 4.67 -0.32 4.34 -1 4 C-0.67 2.68 -0.34 1.36 0 0 Z"/>
<path transform="translate(316,249)" fill="#7A8795" d="M0 0 C5.28 0 10.56 0 16 0 C15.67 1.32 15.34 2.64 15 4 C14.01 4.495 14.01 4.495 13 5 C12.67 4.01 12.34 3.02 12 2 C8.04 2 4.08 2 0 2 C0 1.34 0 0.68 0 0 Z"/>
<path transform="translate(250,259)" fill="#7D8C9D" d="M0 0 C0.99 0.33 1.98 0.66 3 1 C3 3.31 3 5.62 3 8 C2.34 8 1.68 8 1 8 C0.87625 7.360625 0.7525 6.72125 0.625 6.0625 C0.315625 5.0415625 0.315625 5.0415625 0 4 C-0.66 3.67 -1.32 3.34 -2 3 C-2 2.34 -2 1.68 -2 1 C-1.34 0.67 -0.68 0.34 0 0 Z"/>
<path transform="translate(227,204)" fill="#95A0AE" d="M0 0 C0 4.1041911 -1.45843064 5.84021107 -4 9 C-6.75 9.875 -6.75 9.875 -9 10 C-8.06409496 8.8944811 -7.12620142 7.79064547 -6.1875 6.6875 C-5.66542969 6.07261719 -5.14335937 5.45773438 -4.60546875 4.82421875 C-3.12827531 3.14575321 -1.59960869 1.56117966 0 0 Z"/>
<path transform="translate(299,192)" fill="#B0B6BC" d="M0 0 C0.99 0.33 1.98 0.66 3 1 C3 1.66 3 2.32 3 3 C3.66 3 4.32 3 5 3 C6.38232443 4.62626404 7.71937515 6.2925002 9 8 C6.625 7.6875 6.625 7.6875 4 7 C3.34 6.01 2.68 5.02 2 4 C1.34 4.66 0.68 5.32 0 6 C0 4.02 0 2.04 0 0 Z"/>
<path transform="translate(275,189)" fill="#9DA7B3" d="M0 0 C-0.66 0 -1.32 0 -2 0 C-2 0.66 -2 1.32 -2 2 C-2.66 2 -3.32 2 -4 2 C-4 2.66 -4 3.32 -4 4 C-4.66 4 -5.32 4 -6 4 C-6.33 4.99 -6.66 5.98 -7 7 C-7.66 6.67 -8.32 6.34 -9 6 C-9 5.34 -9 4.68 -9 4 C-8.34 4 -7.68 4 -7 4 C-6.87625 3.360625 -6.7525 2.72125 -6.625 2.0625 C-6.41875 1.381875 -6.2125 0.70125 -6 0 C-3.50907189 -1.24546405 -2.58919267 -0.7767578 0 0 Z"/>
<path transform="translate(270,180)" fill="#9FA5B5" d="M0 0 C1 2 1 2 0.3125 4.5 C-1.15567038 7.29651501 -2.09303901 7.93411431 -5 9 C-5.33 8.01 -5.66 7.02 -6 6 C-5.34 6 -4.68 6 -4 6 C-3.71125 5.38125 -3.4225 4.7625 -3.125 4.125 C-2 2 -2 2 0 0 Z"/>
<path transform="translate(178,175)" fill="#8895A3" d="M0 0 C-0.66 0.433125 -1.32 0.86625 -2 1.3125 C-2.66 1.869375 -3.32 2.42625 -4 3 C-4 3.99 -4 4.98 -4 6 C-6.475 5.01 -6.475 5.01 -9 4 C-6.73455663 -1.01633889 -5.27613404 -1.24961069 0 0 Z"/>
<path transform="translate(256,194)" fill="#A7B0BC" d="M0 0 C0.92538169 3.70152678 1.08174162 4.63458162 0 8 C-2.97 7.505 -2.97 7.505 -6 7 C-4.02 4.69 -2.04 2.38 0 0 Z"/>
<path transform="translate(281,188)" fill="#9CA4B0" d="M0 0 C0.33 1.32 0.66 2.64 1 4 C-3.455 7.465 -3.455 7.465 -8 11 C-8.33 10.34 -8.66 9.68 -9 9 C-8.34 9 -7.68 9 -7 9 C-7 8.34 -7 7.68 -7 7 C-5.37660195 5.29115995 -3.70680947 3.62553283 -2 2 C-1.34 1.34 -0.68 0.68 0 0 Z"/>
<path transform="translate(298,160)" fill="#99A7B5" d="M0 0 C0.33 0 0.66 0 1 0 C1.08090971 1.62418745 1.13914995 3.24951745 1.1875 4.875 C1.22230469 5.77992188 1.25710938 6.68484375 1.29296875 7.6171875 C1.19628906 8.40351563 1.09960938 9.18984375 1 10 C0.01 10.66 -0.98 11.32 -2 12 C-2.99 11.67 -3.98 11.34 -5 11 C-4.67 10.01 -4.34 9.02 -4 8 C-2.68 8 -1.36 8 0 8 C0 5.36 0 2.72 0 0 Z"/>
<path transform="translate(178,318)" fill="#94A1AC" d="M0 0 C2.125 0.9375 2.125 0.9375 4 2 C2.71034824 3.37562854 1.37310707 4.70766393 0 6 C-0.66 6 -1.32 6 -2 6 C-2 4.35 -2 2.7 -2 1 C-1.34 0.67 -0.68 0.34 0 0 Z"/>
<path transform="translate(232,272)" fill="#909BAC" d="M0 0 C1.32 0.33 2.64 0.66 4 1 C3.67 1.99 3.34 2.98 3 4 C3.33 4.99 3.66 5.98 4 7 C3.01 7 2.02 7 1 7 C1 6.34 1 5.68 1 5 C0.34 5 -0.32 5 -1 5 C-1 4.34 -1 3.68 -1 3 C-1.66 2.67 -2.32 2.34 -3 2 C-2.01 2 -1.02 2 0 2 C0 1.34 0 0.68 0 0 Z"/>
<path transform="translate(203,248)" fill="#949EAB" d="M0 0 C1.32 0 2.64 0 4 0 C3.8125 1.875 3.8125 1.875 3 4 C0.4375 5.25 0.4375 5.25 -2 6 C-2.33 5.34 -2.66 4.68 -3 4 C-2.67 3.34 -2.34 2.68 -2 2 C-1.34 2 -0.68 2 0 2 C0 1.34 0 0.68 0 0 Z"/>
<path transform="translate(236,244)" fill="#99A5B3" d="M0 0 C0.99 0.66 1.98 1.32 3 2 C2.01 3.485 2.01 3.485 1 5 C1.99 6.485 1.99 6.485 3 8 C1.68 8 0.36 8 -1 8 C-1.93065133 5.39417629 -2.14917407 4.35801776 -1.0625 1.75 C-0.711875 1.1725 -0.36125 0.595 0 0 Z"/>
<path transform="translate(244,207)" fill="#929FAD" d="M0 0 C0.66 0.66 1.32 1.32 2 2 C0.86695008 5.39914975 -0.12518475 6.05254451 -3 8 C-3 7.34 -3 6.68 -3 6 C-3.66 5.67 -4.32 5.34 -5 5 C-3.35 3.35 -1.7 1.7 0 0 Z"/>
<path transform="translate(287,323)" fill="#7D8D9E" d="M0 0 C1.32 0.33 2.64 0.66 4 1 C3.67 1.99 3.34 2.98 3 4 C2.01 4 1.02 4 0 4 C0 4.66 0 5.32 0 6 C-1.32 5.67 -2.64 5.34 -4 5 C-3.34 4.01 -2.68 3.02 -2 2 C-1.34 2 -0.68 2 0 2 C0 1.34 0 0.68 0 0 Z"/>
<path transform="translate(231,239)" fill="#BAC0C7" d="M0 0 C0.33 0.99 0.66 1.98 1 3 C0.38125 3.2475 -0.2375 3.495 -0.875 3.75 C-3.35068687 5.20628639 -3.95125002 6.37812506 -5 9 C-5.66 9 -6.32 9 -7 9 C-5.44499019 5.18315774 -2.96404505 2.80804268 0 0 Z"/>
<path transform="translate(185,218)" fill="#929EAE" d="M0 0 C1.32 0 2.64 0 4 0 C3.34 1.98 2.68 3.96 2 6 C0.68 5.34 -0.64 4.68 -2 4 C-1.34 2.68 -0.68 1.36 0 0 Z"/>
<path transform="translate(268,211)" fill="#A0ABB5" d="M0 0 C2.125 0.9375 2.125 0.9375 4 2 C1.03 4.475 1.03 4.475 -2 7 C-2 5.02 -2 3.04 -2 1 C-1.34 0.67 -0.68 0.34 0 0 Z"/>
<path transform="translate(282,197)" fill="#ABB3C5" d="M0 0 C5.61 0.33 11.22 0.66 17 1 C17 1.33 17 1.66 17 2 C15.41058594 2.09087891 15.41058594 2.09087891 13.7890625 2.18359375 C12.40102779 2.26800127 11.01300768 2.35264917 9.625 2.4375 C8.92632812 2.47681641 8.22765625 2.51613281 7.5078125 2.55664062 C3.62639508 2.74280134 3.62639508 2.74280134 0 4 C0 2.68 0 1.36 0 0 Z"/>
<path transform="translate(248,182)" fill="#A2ACB6" d="M0 0 C0.66 0 1.32 0 2 0 C1.875 1.75 1.875 1.75 1 4 C-2.0625 6.25 -2.0625 6.25 -5 8 C-5.33 7.34 -5.66 6.68 -6 6 C-5.34 6 -4.68 6 -4 6 C-4 5.34 -4 4.68 -4 4 C-3.34 4 -2.68 4 -2 4 C-2 3.34 -2 2.68 -2 2 C-1.34 2 -0.68 2 0 2 C0 1.34 0 0.68 0 0 Z"/>
<path transform="translate(279,331)" fill="#ABB5BF" d="M0 0 C2.475 0.99 2.475 0.99 5 2 C4.34 2.66 3.68 3.32 3 4 C3.32041397 6.60280568 3.32041397 6.60280568 4 9 C1.47740939 7.02579865 1.0070192 6.03254358 0.3125 2.8125 C0.209375 1.884375 0.10625 0.95625 0 0 Z"/>
<path transform="translate(324,313)" fill="#8B96A5" d="M0 0 C0.99 0.33 1.98 0.66 3 1 C3 2.32 3 3.64 3 5 C1.02 5.99 1.02 5.99 -1 7 C-1.625 5.1875 -1.625 5.1875 -2 3 C-1.34 2.01 -0.68 1.02 0 0 Z"/>
<path transform="translate(204,267)" fill="#9CA7B3" d="M0 0 C0.99 0.33 1.98 0.66 3 1 C2.1875 2.9375 2.1875 2.9375 1 5 C0.01 5.33 -0.98 5.66 -2 6 C-2.66 5.34 -3.32 4.68 -4 4 C-2.68 2.68 -1.36 1.36 0 0 Z"/>
<path transform="translate(257,175)" fill="#8392A3" d="M0 0 C1.98 0 3.96 0 6 0 C5.34 2.31 4.68 4.62 4 7 C3.34 6.67 2.68 6.34 2 6 C2 5.01 2 4.02 2 3 C1.34 2.67 0.68 2.34 0 2 C0 1.34 0 0.68 0 0 Z"/>
<path transform="translate(281,308)" fill="#97A2B4" d="M0 0 C2.64 0.33 5.28 0.66 8 1 C8 1.99 8 2.98 8 4 C6.68 4.33 5.36 4.66 4 5 C2.68 3.35 1.36 1.7 0 0 Z"/>
<path transform="translate(256,273)" fill="#7F8FA4" d="M0 0 C0.66 0.66 1.32 1.32 2 2 C3.31747324 2.69748583 4.64914193 3.36959957 6 4 C3.69 4.66 1.38 5.32 -1 6 C-1.33 4.68 -1.66 3.36 -2 2 C-1.34 2 -0.68 2 0 2 C0 1.34 0 0.68 0 0 Z"/>
<path transform="translate(309,194)" fill="#8C96A8" d="M0 0 C0.99 0 1.98 0 3 0 C3 1.65 3 3.3 3 5 C1.68 5.33 0.36 5.66 -1 6 C-0.67 4.02 -0.34 2.04 0 0 Z"/>
<path transform="translate(324,172)" fill="#7B8B9E" d="M0 0 C2.31 0 4.62 0 7 0 C6.34 1.65 5.68 3.3 5 5 C2.5 3.625 2.5 3.625 0 2 C0 1.34 0 0.68 0 0 Z"/>
<path transform="translate(281,158)" fill="#B5B9C4" d="M0 0 C0.33 0 0.66 0 1 0 C0.67 3.63 0.34 7.26 0 11 C-0.66 10.67 -1.32 10.34 -2 10 C-2.17942163 6.05272412 -2.09350689 3.4019487 0 0 Z"/>
<path transform="translate(296,324)" fill="#A5AEB7" d="M0 0 C2.7972908 2.06756277 3.02692273 3.14440371 3.6875 6.6875 C3.790625 7.780625 3.89375 8.87375 4 10 C3.67 9.34 3.34 8.68 3 8 C2.34 8 1.68 8 1 8 C1 6.35 1 4.7 1 3 C0.34 2.67 -0.32 2.34 -1 2 C-0.67 1.34 -0.34 0.68 0 0 Z"/>
<path transform="translate(235,286)" fill="#97A2AE" d="M0 0 C2.5 2.3125 2.5 2.3125 5 5 C5 5.99 5 6.98 5 8 C3.0625 7.375 3.0625 7.375 1 6 C0.25 2.875 0.25 2.875 0 0 Z"/>
<path transform="translate(290,244)" fill="#9CA7B1" d="M0 0 C-0.99 0.495 -0.99 0.495 -2 1 C-0.68 1.66 0.64 2.32 2 3 C-4.75 3.125 -4.75 3.125 -7 2 C-7 1.34 -7 0.68 -7 0 C-3.98968256 -0.93423645 -3.13349732 -1.04449911 0 0 Z"/>
<path transform="translate(281,234)" fill="#A6AEBC" d="M0 0 C0.12375 0.639375 0.2475 1.27875 0.375 1.9375 C0.58125 2.618125 0.7875 3.29875 1 4 C1.66 4.33 2.32 4.66 3 5 C2.34 6.65 1.68 8.3 1 10 C-1 8 -1 8 -1.1875 5 C-1 2 -1 2 0 0 Z"/>
<path transform="translate(266,203)" fill="#99A4AF" d="M0 0 C0.99 0.33 1.98 0.66 3 1 C2.01 1.495 2.01 1.495 1 2 C0.835 2.66 0.67 3.32 0.5 4 C0.335 4.66 0.17 5.32 0 6 C-0.99 6.495 -0.99 6.495 -2 7 C-2.66 6.34 -3.32 5.68 -4 5 C-2.68 3.35 -1.36 1.7 0 0 Z"/>
<path transform="translate(326,175)" fill="#8B9BB0" d="M0 0 C1.66666667 0 3.33333333 0 5 0 C5 0.66 5 1.32 5 2 C5.99 2.33 6.98 2.66 8 3 C6.02 3.99 6.02 3.99 4 5 C4 4.34 4 3.68 4 3 C2.68 3.33 1.36 3.66 0 4 C0 2.68 0 1.36 0 0 Z"/>
<path transform="translate(171.125,320.9375)" fill="#96A2AC" d="M0 0 C0.94875 0.350625 1.8975 0.70125 2.875 1.0625 C2.875 1.7225 2.875 2.3825 2.875 3.0625 C-1.67884615 3.43173077 -1.67884615 3.43173077 -3.9375 1.5625 C-4.5253125 0.82 -4.5253125 0.82 -5.125 0.0625 C-3.125 -0.9375 -3.125 -0.9375 0 0 Z"/>
<path transform="translate(322,289)" fill="#96A3B1" d="M0 0 C0.66 0.33 1.32 0.66 2 1 C2.625 3.0625 2.625 3.0625 3 5 C1.35 4.67 -0.3 4.34 -2 4 C-1.34 2.68 -0.68 1.36 0 0 Z M4 2 C4.33 2.66 4.66 3.32 5 4 C4.34 3.67 3.68 3.34 3 3 C3.33 2.67 3.66 2.34 4 2 Z"/>
<path transform="translate(281,329)" fill="#8C9CA9" d="M0 0 C1.98 0 3.96 0 6 0 C6 1.65 6 3.3 6 5 C5.34 4.01 4.68 3.02 4 2 C2.68 2.33 1.36 2.66 0 3 C0 2.01 0 1.02 0 0 Z"/>
<path transform="translate(251,303)" fill="#9CA7B5" d="M0 0 C1.32 1.32 2.64 2.64 4 4 C3.01 4 2.02 4 1 4 C0.67 4.66 0.34 5.32 0 6 C-0.66 5.67 -1.32 5.34 -2 5 C-1.34 3.35 -0.68 1.7 0 0 Z"/>
<path transform="translate(247,267)" fill="#97A3AF" d="M0 0 C-0.66 1.32 -1.32 2.64 -2 4 C-3.32 2.68 -4.64 1.36 -6 0 C-3.50907189 -1.24546405 -2.58919267 -0.7767578 0 0 Z"/>
<path transform="translate(230,256)" fill="#A5B0BB" d="M0 0 C2.3125 0.1875 2.3125 0.1875 5 1 C6.8125 3.5625 6.8125 3.5625 8 6 C7.01 6 6.02 6 5 6 C5 5.34 5 4.68 5 4 C4.34 4 3.68 4 3 4 C3 3.34 3 2.68 3 2 C2.01 1.67 1.02 1.34 0 1 C0 0.67 0 0.34 0 0 Z"/>
<path transform="translate(245,239)" fill="#9BA7B9" d="M0 0 C0 1.65 0 3.3 0 5 C-0.66 4.34 -1.32 3.68 -2 3 C-2.99 3.66 -3.98 4.32 -5 5 C-5.66 4.34 -6.32 3.68 -7 3 C-4.49955934 -0.00052879 -4.2621484 0 0 0 Z"/>
<path transform="translate(217,224)" fill="#9AA3B1" d="M0 0 C0.99 0.66 1.98 1.32 3 2 C0.03 4.475 0.03 4.475 -3 7 C-2.67 5.35 -2.34 3.7 -2 2 C-1.34 2 -0.68 2 0 2 C0 1.34 0 0.68 0 0 Z"/>
<path transform="translate(226,216)" fill="#9AA3B1" d="M0 0 C0.33 0.99 0.66 1.98 1 3 C-1.97 5.475 -1.97 5.475 -5 8 C-4.67 6.68 -4.34 5.36 -4 4 C-3.34 4 -2.68 4 -2 4 C-1.34 2.68 -0.68 1.36 0 0 Z"/>
<path transform="translate(183,213)" fill="#A5AAB6" d="M0 0 C0.66 0 1.32 0 2 0 C2.1875 2.875 2.1875 2.875 2 6 C1.01 6.66 0.02 7.32 -1 8 C-1.125 2.25 -1.125 2.25 0 0 Z"/>
<path transform="translate(262,194)" fill="#A2AAB8" d="M0 0 C0.33 0.66 0.66 1.32 1 2 C3.02463255 2.65213292 3.02463255 2.65213292 5 3 C3.68 3.99 2.36 4.98 1 6 C-0.0625 4.125 -0.0625 4.125 -1 2 C-0.67 1.34 -0.34 0.68 0 0 Z"/>
</svg>